<?xml version="1.0" standalone="no"?>
<!DOCTYPE svg PUBLIC "-//W3C//DTD SVG 20010904//EN"
 "http://www.w3.org/TR/2001/REC-SVG-20010904/DTD/svg10.dtd">
<svg version="1.0" xmlns="http://www.w3.org/2000/svg"
 width="300.000000pt" height="200.000000pt" viewBox="0 0 300.000000 200.000000"
 preserveAspectRatio="xMidYMid meet">
<metadata>
Created by potrace 1.10, written by Peter Selinger 2001-2011
</metadata>
<g transform="translate(0.000000,200.000000) scale(0.100000,-0.100000)"
fill="#000000" stroke="none">
<path d="M100 1993 c0 -5 13 -17 28 -27 l27 -19 -24 26 c-26 28 -31 32 -31 20z"/>
<path d="M215 1941 c33 -35 68 -73 78 -83 10 -11 20 -18 23 -16 2 2 -34 40
-79 84 -67 64 -71 67 -22 15z"/>
<path d="M220 1995 c1 -13 78 -90 85 -84 2 3 -16 25 -40 49 -25 24 -45 40 -45
35z"/>
<path d="M289 1976 c14 -15 26 -26 28 -26 9 0 -24 40 -37 45 -8 4 -4 -5 9 -19z"/>
<path d="M371 1955 c42 -44 49 -50 49 -40 0 7 -78 85 -86 85 -3 0 13 -20 37
-45z"/>
<path d="M450 1994 c0 -11 40 -47 46 -41 2 2 -7 14 -21 27 -14 13 -25 19 -25
14z"/>
<path d="M641 1973 c13 -16 39 -41 59 -57 19 -17 11 -5 -20 27 -58 61 -76 75
-39 30z"/>
<path d="M2220 1958 c24 -27 45 -48 47 -48 8 0 0 9 -44 50 l-48 45 45 -47z"/>
<path d="M2300 1993 c0 -12 38 -48 44 -42 3 2 -6 15 -20 28 -13 13 -24 19 -24
14z"/>
<path d="M2546 1918 c43 -46 95 -96 114 -112 19 -16 -14 21 -75 82 -60 62
-112 112 -114 112 -3 0 31 -37 75 -82z"/>
<path d="M2590 1993 c0 -12 28 -38 34 -32 2 2 -5 13 -15 23 -11 11 -19 15 -19
9z"/>
<path d="M2960 1965 c19 -19 36 -35 39 -35 3 0 -10 16 -29 35 -19 19 -36 35
-39 35 -3 0 10 -16 29 -35z"/>
<path d="M520 1985 c1 -13 120 -132 120 -119 0 5 -27 36 -60 69 -33 33 -60 55
-60 50z"/>
<path d="M2091 1965 c13 -13 28 -25 33 -25 5 0 -1 11 -14 25 -13 14 -28 25
-33 25 -5 0 1 -11 14 -25z"/>
<path d="M85 1950 c16 -16 31 -27 34 -24 5 5 -47 54 -57 54 -3 0 7 -13 23 -30z"/>
<path d="M1275 1973 c-415 -36 -819 -213 -1050 -462 -147 -158 -215 -319 -215
-511 0 -208 79 -381 249 -551 208 -207 507 -347 886 -415 121 -22 451 -30 595
-15 475 50 888 249 1102 531 86 113 157 287 147 360 -4 24 -5 24 -21 -10 -9
-20 -19 -50 -22 -67 -7 -37 -57 -150 -80 -178 -15 -19 -15 -18 -9 15 3 19 14
44 24 56 11 11 19 36 19 55 0 19 7 43 15 53 18 24 20 67 3 84 -9 9 -8 16 5 30
20 21 22 63 6 79 -9 9 -9 19 1 42 10 26 9 34 -8 58 -13 19 -18 38 -15 56 4 20
-1 35 -15 50 -11 12 -25 40 -31 63 -6 22 -20 49 -31 59 -11 10 -20 27 -20 38
0 19 1 20 20 2 11 -10 20 -22 20 -26 0 -5 12 -30 28 -56 30 -52 63 -134 81
-200 14 -52 31 -65 31 -24 0 46 -26 137 -58 200 -122 245 -349 431 -687 564
-78 30 -277 85 -370 102 -117 21 -451 31 -600 18z m181 -65 c17 -27 -80 -55
-114 -34 -20 12 -13 35 11 40 64 14 92 12 103 -6z m153 8 c16 -10 14 -33 -5
-40 -31 -12 -91 -6 -105 10 -11 14 -10 18 6 31 20 14 80 14 104 -1z m165 -16
c5 -5 6 -16 3 -24 -9 -22 -100 -22 -118 0 -11 14 -10 18 6 31 21 14 91 10 109
-7z m-484 -5 c19 -22 1 -36 -52 -42 -33 -4 -47 -1 -58 12 -12 15 -12 19 5 31
25 19 89 18 105 -1z m602 -5 c44 -13 54 -25 38 -45 -15 -18 -32 -19 -82 -4
-41 11 -49 32 -20 48 21 13 20 13 64 1z m-771 -10 c31 -17 22 -38 -22 -50 -53
-14 -73 -10 -77 17 -3 17 3 24 25 29 15 3 33 7 38 9 6 2 11 4 13 4 2 1 12 -4
23 -9z m582 -86 c-16 -24 -32 -148 -23 -182 13 -53 62 -78 94 -47 19 19 23 19
53 -5 16 -12 35 -18 50 -15 17 3 33 -4 49 -20 26 -26 41 -30 60 -17 49 34 61
136 19 177 -13 14 -34 25 -45 25 -12 0 -35 7 -52 16 -29 15 -32 15 -60 -6 -34
-25 -45 -21 -28 10 6 11 10 33 8 47 -3 26 -2 26 57 27 45 1 67 -3 88 -18 17
-13 45 -21 72 -21 25 -1 52 -8 62 -17 30 -26 64 -40 84 -35 11 3 33 -6 54 -23
20 -16 50 -32 68 -36 18 -3 46 -19 64 -34 17 -16 42 -32 55 -36 13 -4 38 -22
56 -40 18 -18 42 -36 52 -39 10 -3 22 -15 25 -26 4 -10 10 -19 14 -19 12 0 71
-59 71 -70 0 -6 14 -24 30 -42 17 -17 30 -36 30 -43 0 -7 9 -24 21 -39 11 -15
23 -41 26 -59 3 -17 11 -39 19 -48 7 -8 13 -31 12 -50 0 -19 4 -44 10 -56 7
-13 8 -31 3 -50 -5 -18 -5 -37 1 -48 8 -13 6 -26 -6 -47 -12 -18 -15 -39 -11
-57 4 -20 2 -30 -9 -34 -8 -3 -17 -21 -21 -39 -18 -84 -151 -248 -279 -343
l-48 -37 -29 28 c-36 35 -36 54 -2 89 21 20 28 37 28 67 0 58 -22 70 -113 64
-63 -4 -75 -8 -93 -30 -13 -17 -30 -26 -48 -26 -28 0 -72 -38 -84 -72 -10 -29
-55 -34 -81 -9 -12 11 -34 21 -48 21 -14 0 -33 9 -43 20 -23 25 -25 25 -99 -7
-72 -31 -116 -68 -116 -99 0 -24 41 -70 71 -79 26 -9 24 -20 -6 -33 -14 -7
-30 -23 -37 -37 -10 -22 -8 -28 17 -51 25 -23 34 -25 72 -20 48 6 124 41 136
63 5 8 16 11 28 8 12 -4 29 2 45 14 29 22 59 27 69 11 16 -25 75 6 75 39 0 9
20 27 44 39 l44 24 36 -39 c19 -21 36 -41 36 -45 0 -3 -13 -9 -29 -13 -16 -3
-50 -20 -75 -36 -25 -17 -53 -30 -63 -29 -35 4 -48 0 -76 -24 -22 -19 -36 -23
-65 -19 -29 4 -46 -1 -75 -21 -29 -20 -42 -24 -61 -16 -26 9 -91 -3 -101 -20
-3 -5 -31 -7 -64 -4 -41 5 -65 2 -85 -8 -24 -13 -34 -13 -71 -1 -37 13 -47 13
-80 -1 -33 -14 -39 -14 -58 -1 -23 16 -94 20 -116 6 -8 -6 -30 -2 -58 11 -33
14 -55 18 -84 13 -32 -5 -45 -3 -60 11 -14 13 -38 19 -74 20 -38 1 -61 7 -81
23 -15 12 -41 21 -60 21 -19 0 -49 11 -70 25 -33 23 -55 29 -91 28 -7 -1 -13
3 -13 7 0 11 -77 60 -94 60 -8 0 -27 13 -42 30 -16 16 -41 35 -57 41 -37 16
-183 163 -207 210 -10 19 -26 41 -34 48 -9 8 -16 23 -16 35 0 11 -9 32 -20 46
-11 14 -20 39 -20 56 0 16 -6 39 -14 49 -9 12 -12 32 -9 52 3 19 0 39 -6 47
-9 11 -9 20 -2 35 6 11 11 37 11 58 0 22 4 43 10 49 5 5 11 23 12 39 1 17 9
41 19 55 9 14 20 36 24 50 4 14 21 41 36 60 16 19 29 38 29 42 0 4 28 34 63
68 34 33 76 74 92 90 17 17 36 30 42 30 7 0 30 15 50 34 21 18 50 36 64 39 14
4 43 20 64 37 21 16 50 30 64 30 15 0 42 11 61 25 19 14 47 25 66 25 17 0 47
7 67 15 l35 14 -9 -39 c-5 -22 -10 -83 -12 -135 -2 -77 1 -97 15 -111 25 -25
65 -11 85 31 19 40 34 43 70 15 30 -24 56 -26 76 -6 9 10 27 13 53 9 33 -4 43
-1 63 21 24 26 24 26 13 129 -6 57 -14 111 -18 121 -5 14 -3 17 12 14 24 -4
35 -52 35 -158 l0 -85 44 -41 c28 -25 45 -50 45 -63 0 -14 -22 -43 -60 -79
-32 -31 -66 -73 -74 -94 -14 -33 -19 -37 -68 -43 -96 -12 -154 -33 -173 -62
-17 -25 -17 -32 -1 -121 9 -52 25 -114 36 -137 11 -24 20 -48 20 -52 0 -4 -16
-21 -35 -38 -51 -43 -55 -82 -16 -128 28 -31 57 -47 85 -46 5 1 12 -4 15 -10
9 -15 189 -41 278 -41 141 1 253 20 331 55 89 41 115 94 72 148 l-21 26 45 33
c48 35 86 97 86 139 -1 34 -20 64 -58 93 -18 13 -43 44 -55 67 -21 42 -25 45
-92 61 -38 9 -87 17 -108 17 l-39 1 7 61 c7 58 6 62 -23 92 -16 18 -37 48 -46
67 -9 19 -32 45 -52 58 -29 19 -34 27 -27 45 4 12 6 72 4 133 l-2 110 34 -4
c19 -2 47 2 61 10 24 13 32 12 70 -6 42 -19 43 -21 29 -42z m356 55 c62 -22
23 -66 -42 -48 -40 11 -52 23 -43 44 6 18 41 19 85 4z m-1079 -14 c17 -21 -1
-41 -44 -49 -42 -8 -66 1 -66 24 0 33 87 52 110 25z m500 -57 c0 -35 3 -86 6
-113 5 -41 3 -55 -13 -74 -16 -20 -23 -22 -41 -12 -18 10 -20 15 -12 37 13 34
13 94 -2 148 -14 52 -1 76 38 76 23 0 24 -3 24 -62z m-282 44 c6 -5 19 -35 27
-68 9 -32 18 -66 20 -74 9 -29 -31 -20 -49 10 -9 16 -22 35 -29 42 -7 7 -18
25 -26 40 -11 22 -12 30 -1 43 14 16 38 19 58 7z m131 -114 c15 -128 9 -152
-33 -146 -18 3 -20 11 -21 68 -1 36 -7 89 -15 119 -13 50 -13 54 5 67 41 30
49 16 64 -108z m865 97 c26 -11 36 -21 34 -33 -6 -33 -104 -20 -116 16 -2 6 7
16 20 21 12 6 24 10 24 10 1 1 18 -6 38 -14z m-1360 -21 c21 -20 21 -21 -14
-39 -36 -18 -74 -19 -88 -2 -14 16 -3 33 28 46 36 14 57 13 74 -5z m965 7 c11
-7 10 -13 -4 -35 -11 -16 -20 -56 -24 -103 -3 -42 -11 -78 -17 -80 -6 -2 -21
4 -33 14 -20 17 -21 22 -11 102 5 46 15 89 21 97 13 16 47 18 68 5z m-693 -33
c17 -18 41 -50 53 -70 13 -21 27 -38 32 -38 5 0 9 -11 9 -24 0 -13 7 -29 15
-36 28 -24 7 -58 -28 -44 -7 2 -17 14 -22 27 -22 49 -101 23 -107 -35 -2 -26
-8 -34 -27 -36 -23 -4 -23 -3 -17 62 3 36 9 95 12 132 6 58 22 94 43 94 4 0
21 -15 37 -32z m1228 -13 c40 -17 46 -39 16 -55 -14 -8 -29 -7 -54 4 -41 17
-52 32 -36 51 16 19 29 19 74 0z m-1634 -15 c21 -13 3 -40 -38 -57 -27 -11
-33 -10 -53 6 l-23 19 34 21 c38 23 57 26 80 11z m1199 -29 c12 -8 12 -12 2
-25 -17 -20 -8 -20 29 -1 55 28 76 -1 65 -91 -6 -47 -9 -54 -29 -54 -32 0 -35
5 -24 56 6 25 7 48 3 52 -4 4 -21 -10 -38 -31 -31 -36 -60 -47 -72 -28 -4 8 3
52 21 119 4 14 23 15 43 3z m561 -26 c59 -30 22 -75 -40 -49 -41 18 -53 34
-38 51 14 17 42 16 78 -2z m-1886 -11 c25 -9 19 -31 -14 -54 -36 -26 -80 -21
-80 9 0 34 55 60 94 45z m2009 -72 c24 -22 21 -41 -9 -48 -28 -7 -73 12 -82
35 -7 19 27 42 52 35 12 -4 29 -13 39 -22z m-2119 -8 c24 -9 19 -30 -10 -53
-32 -25 -57 -27 -74 -6 -11 13 -9 20 10 40 24 25 45 30 74 19z m1079 -72 c47
-44 39 -73 -55 -181 -46 -54 -50 -91 -11 -127 14 -13 24 -27 20 -30 -7 -7 -54
22 -94 60 -51 47 -45 70 37 146 76 72 87 103 50 140 -50 50 -2 43 53 -8z
m1137 -7 c19 -20 21 -27 10 -40 -18 -21 -50 -19 -77 7 -25 24 -30 44 -10 51
28 12 55 6 77 -18z m-2293 -22 c12 -31 -53 -71 -88 -53 -28 15 -23 38 12 59
32 20 67 17 76 -6z m2367 0 c17 -21 17 -21 -3 -16 -11 3 -18 9 -15 14 3 5 0 9
-6 9 -6 0 -8 5 -5 11 4 6 8 9 9 7 0 -2 9 -13 20 -25z m-2538 -60 c-20 -19 -36
-44 -36 -55 0 -11 -13 -32 -29 -47 -21 -20 -29 -37 -29 -58 1 -18 -8 -43 -20
-58 -16 -21 -20 -35 -16 -66 3 -22 2 -39 -4 -39 -17 0 -21 -42 -8 -74 11 -26
11 -35 -1 -53 -12 -19 -12 -25 0 -50 8 -16 13 -40 10 -55 -3 -18 2 -39 16 -61
12 -19 18 -42 15 -51 -4 -10 5 -31 22 -53 15 -20 29 -47 30 -60 5 -44 -21 -8
-64 90 -45 103 -77 237 -68 294 19 136 63 252 134 353 54 77 76 101 81 88 2
-6 -13 -26 -33 -45z m2540 -8 c21 -21 23 -29 14 -40 -21 -25 -65 -18 -85 12
-17 25 -17 27 1 40 26 19 42 16 70 -12z m-1139 -7 c35 -33 31 -50 -34 -162
-17 -29 -16 -56 4 -78 15 -16 15 -18 0 -18 -21 0 -87 58 -87 76 0 8 -9 14 -20
14 -11 0 -20 5 -20 11 0 6 10 9 23 7 17 -2 36 11 70 46 45 48 60 87 37 101
-11 7 -14 25 -3 25 4 0 17 -10 30 -22z m-1317 -13 c20 -24 -12 -65 -51 -65
-37 0 -47 22 -25 55 19 28 57 33 76 10z m2525 -81 c19 -29 7 -54 -28 -54 -38
0 -73 51 -50 73 16 17 61 6 78 -19z m-2585 -14 c13 -8 13 -13 0 -37 -18 -32
-60 -42 -80 -19 -10 13 -9 20 4 41 17 26 49 32 76 15z m1140 -58 c0 -4 -35
-13 -77 -19 -94 -14 -133 -28 -133 -47 0 -21 56 -35 198 -48 198 -19 453 13
440 54 -6 17 -67 34 -150 43 -38 4 -68 12 -68 18 0 15 157 2 220 -19 l55 -19
-1 -42 c-1 -39 1 -42 31 -47 45 -9 79 -48 78 -90 -2 -65 -58 -120 -137 -135
-49 -9 -65 -1 -44 21 15 16 21 68 7 68 -5 0 -9 -7 -9 -15 0 -20 -37 -61 -46
-52 -4 4 -7 20 -6 37 0 17 -4 28 -9 25 -5 -4 -9 -15 -9 -25 0 -10 -5 -22 -11
-25 -5 -4 -8 -12 -6 -18 2 -7 -2 -25 -10 -42 -13 -27 -13 -28 2 -11 8 11 15
14 15 8 0 -7 4 -12 9 -12 6 0 9 12 8 26 -2 21 3 27 21 29 26 2 28 -7 7 -25 -8
-7 -15 -17 -15 -23 0 -5 9 -2 19 7 10 10 21 14 22 9 2 -4 25 -18 51 -30 83
-39 74 -94 -21 -135 -194 -83 -640 -49 -704 54 -16 25 8 63 54 84 22 9 39 19
39 21 0 2 -7 15 -16 28 -9 14 -12 25 -8 25 5 0 4 4 -2 8 -14 9 -44 129 -51
208 -5 56 -4 63 15 73 54 29 242 55 242 33z m1478 -10 c7 -5 14 -22 15 -38 2
-25 -2 -29 -26 -32 -35 -4 -57 13 -57 43 0 31 38 46 68 27z m-2664 -35 c37
-27 -8 -82 -56 -69 -24 6 -24 57 0 71 23 14 35 13 56 -2z m1216 -7 c22 -11 46
-20 54 -20 8 0 18 -5 21 -10 9 -14 -199 -4 -226 11 -25 13 -15 26 26 32 63 9
87 6 125 -13z m304 3 c25 -7 9 -20 -41 -31 -32 -7 -47 -6 -60 4 -17 13 -17 15
2 29 19 15 42 14 99 -2z m1186 -89 c12 -32 -2 -54 -34 -54 -28 0 -46 18 -46
45 0 29 8 35 42 35 22 0 31 -6 38 -26z m-2725 -44 c0 -33 -2 -35 -35 -35 -29
0 -36 4 -38 23 -6 40 5 54 40 50 30 -3 33 -6 33 -38z m2735 -75 c0 -29 -37
-43 -69 -25 -33 17 -24 54 14 62 30 7 55 -10 55 -37z m-2732 -37 c2 -19 -2
-28 -17 -33 -37 -11 -61 3 -61 36 0 29 2 30 38 27 32 -3 37 -7 40 -30z m2703
-38 c23 -13 25 -55 3 -68 -18 -10 -61 -4 -69 9 -10 15 7 58 23 62 10 3 18 5
20 6 2 0 12 -4 23 -9z m-2697 -33 c11 -8 17 -23 14 -38 -2 -19 -10 -25 -35
-27 -27 -3 -35 1 -44 22 -21 45 23 73 65 43z m2683 -78 c17 -17 -11 -69 -36
-69 -48 0 -62 21 -41 61 12 21 59 26 77 8z m-2635 -44 c9 -21 9 -29 -4 -42
-21 -21 -61 -10 -75 19 -15 34 -5 48 33 48 27 0 37 -5 46 -25z m2588 -60 c10
-12 9 -20 -4 -41 -14 -20 -24 -25 -49 -22 -38 4 -47 30 -21 59 20 23 57 25 74
4z m-2533 -41 c16 -25 16 -27 -2 -40 -28 -21 -53 -17 -71 11 -22 33 -12 55 25
55 22 0 35 -8 48 -26z m2101 -36 c24 -24 13 -60 -29 -99 l-41 -38 18 -30 c10
-17 26 -34 36 -37 24 -7 23 -21 -3 -35 -28 -15 -62 18 -85 80 -9 25 -25 66
-36 90 -21 51 -10 76 28 67 12 -3 33 -2 46 3 32 13 52 13 66 -1z m462 5 c0 -5
-14 -24 -31 -43 -27 -32 -30 -33 -23 -10 10 38 55 81 54 53z m-2646 -35 c12
-13 30 -36 40 -53 l17 -30 -20 24 c-12 13 -21 20 -21 15 0 -4 -11 7 -25 26
-14 19 -25 35 -25 37 0 8 13 1 34 -19z m2552 11 c9 -15 -15 -57 -38 -65 -24
-7 -58 4 -58 19 0 7 7 23 16 35 16 24 67 31 80 11z m-2406 -33 c28 -31 20 -56
-16 -56 -32 0 -64 26 -64 51 0 35 48 38 80 5z m1864 -17 c19 -15 26 -29 26
-56 0 -67 -57 -96 -101 -52 -17 17 -20 29 -16 61 9 69 42 86 91 47z m-304 -23
c0 -18 -16 -29 -73 -50 -26 -10 -46 -23 -44 -30 2 -6 29 -20 60 -31 100 -36
118 -66 69 -115 -42 -42 -122 -61 -163 -40 -15 9 -17 15 -9 30 9 16 17 19 55
13 33 -4 51 -1 71 12 33 22 24 31 -68 69 -85 35 -99 50 -71 77 24 24 130 78
156 79 9 0 17 -6 17 -14z m840 -26 c-12 -16 -26 -30 -32 -30 -11 0 7 27 32 47
23 19 23 16 0 -17z m-86 14 c22 -8 20 -23 -6 -51 -25 -27 -60 -30 -79 -7 -11
14 -10 20 14 40 29 25 44 28 71 18z m-673 -41 c13 -66 18 -70 39 -35 28 45 50
40 88 -21 36 -59 39 -72 16 -81 -22 -9 -50 18 -58 55 -8 41 -23 36 -38 -13
-12 -43 -23 -58 -44 -58 -16 0 -54 162 -41 178 15 19 31 9 38 -25z m-1551 1
c24 -21 28 -29 19 -40 -18 -21 -63 -17 -87 9 -21 23 -19 39 8 50 24 9 27 8 60
-19z m-126 -10 c9 -23 4 -24 -16 -2 -14 14 -15 18 -4 18 8 0 17 -7 20 -16z
m1600 -10 c8 -21 1 -28 -18 -21 -9 4 -13 13 -10 22 8 20 20 19 28 -1z m661
-49 c0 -26 -44 -50 -78 -41 -33 8 -35 29 -4 51 31 22 82 16 82 -10z m-2026
-14 c31 -24 22 -51 -17 -51 -40 0 -87 37 -71 56 16 20 59 17 88 -5z m1911 -46
c15 -18 7 -31 -31 -51 -59 -30 -99 19 -41 50 35 19 56 20 72 1z m-1800 -20
c35 -18 39 -42 8 -54 -27 -10 -46 -5 -78 19 -20 15 -22 20 -11 34 17 20 44 20
81 1z m1678 -48 c13 -15 5 -30 -25 -46 -50 -26 -112 -1 -75 31 33 29 82 37
100 15z m-1519 -33 c9 -9 -16 -39 -35 -42 -22 -3 -84 33 -84 48 0 21 44 28 79
14 19 -8 37 -17 40 -20z m1386 -38 c0 -25 -68 -50 -96 -35 -45 24 -6 60 61 56
27 -2 35 -6 35 -21z m-1276 3 c38 -13 43 -46 7 -55 -29 -7 -96 20 -96 40 0 26
39 32 89 15z m1109 -25 c22 -6 31 -37 14 -48 -19 -12 -88 -16 -102 -7 -27 18
6 51 60 60 3 0 15 -2 28 -5z m-965 -15 c26 -7 37 -16 37 -29 0 -25 -31 -33
-80 -20 -41 11 -50 26 -28 48 15 15 23 15 71 1z m187 -46 c13 -13 13 -16 -3
-28 -22 -16 -85 -9 -107 12 -13 13 -13 16 3 28 22 16 85 9 107 -12z m645 2 c0
-28 -88 -46 -111 -23 -14 14 -14 17 1 32 13 12 31 16 64 14 38 -3 46 -6 46
-23z m-481 -16 c5 -4 6 -15 3 -23 -9 -22 -100 -22 -118 0 -11 14 -10 18 6 30
19 14 91 10 109 -7z m321 -4 c0 -13 -10 -22 -32 -28 -43 -13 -83 -2 -83 22 0
25 14 30 70 28 37 -2 45 -5 45 -22z m-158 -1 c9 -24 -18 -40 -64 -38 -54 2
-53 2 -53 22 0 28 9 32 62 32 36 0 50 -4 55 -16z"/>
<path d="M623 642 c-39 -21 -58 -46 -68 -90 -8 -37 9 -69 58 -111 67 -58 124
-74 161 -46 17 13 22 12 44 -5 14 -12 40 -20 62 -20 32 0 43 -6 74 -45 42 -51
64 -56 97 -20 13 13 27 25 32 25 4 0 23 -18 43 -40 44 -49 77 -59 104 -35 11
10 20 24 20 32 0 21 10 15 54 -32 39 -41 47 -45 90 -45 25 0 57 7 70 15 21 14
24 14 36 0 19 -23 111 -20 140 5 19 17 21 24 13 43 -7 15 -8 29 -2 38 17 27 9
61 -21 89 -37 35 -74 42 -126 24 -36 -12 -45 -12 -73 2 -18 9 -47 14 -67 12
-21 -2 -33 0 -30 6 6 18 -25 63 -52 75 -14 7 -44 9 -71 5 -42 -5 -51 -3 -77
21 -25 24 -35 26 -73 21 -25 -3 -54 -12 -65 -19 -26 -16 -35 -16 -67 6 -25 17
-79 20 -79 5 0 -4 -9 -8 -20 -8 -13 0 -18 5 -14 15 9 21 -20 60 -57 79 -41 21
-95 20 -136 -2z m126 -26 c39 -21 57 -44 43 -58 -8 -8 -21 -5 -47 11 -43 25
-62 26 -87 4 -40 -36 0 -113 60 -113 30 0 52 -16 52 -37 0 -18 -45 -16 -86 3
-47 22 -104 88 -104 120 0 16 12 37 31 55 36 33 91 39 138 15z m27 -80 c32 -1
32 -1 17 -29 -12 -25 -18 -28 -46 -21 -49 10 -67 23 -67 46 0 18 4 20 33 13
17 -5 46 -9 63 -9z m154 -17 c29 -53 -4 -119 -59 -119 -56 0 -80 69 -38 107
49 44 78 48 97 12z m188 5 c12 -8 22 -22 22 -30 0 -16 -36 -19 -45 -4 -10 15
-46 12 -67 -7 -10 -9 -18 -29 -18 -45 0 -27 2 -28 44 -28 47 0 69 -16 45 -31
-8 -5 -29 -8 -46 -6 -36 3 -42 -9 -21 -43 7 -10 9 -22 6 -25 -13 -14 -47 7
-56 34 -6 16 -20 32 -31 36 -24 7 -28 25 -7 25 8 0 17 14 21 33 12 60 17 68
48 88 39 23 75 24 105 3z m176 -43 c27 -29 13 -40 -35 -27 -38 10 -43 9 -60
-13 -19 -24 -26 -66 -11 -75 4 -3 25 -1 45 3 26 6 39 5 47 -4 13 -16 7 -20
-42 -29 -41 -7 -47 -19 -23 -42 22 -22 18 -34 -11 -34 -19 0 -28 7 -37 29 -6
17 -21 32 -34 36 -26 6 -30 20 -8 29 9 3 15 19 15 41 0 46 13 71 48 89 38 21
86 20 106 -3z m-29 -71 c-27 -12 -35 -12 -35 0 0 6 12 10 28 9 24 0 25 -1 7
-9z m169 -21 c40 -31 34 -57 -19 -80 -57 -25 -58 -41 -2 -37 31 2 42 -1 42
-12 0 -17 -41 -29 -75 -22 -34 6 -68 39 -75 72 -6 29 9 80 28 92 23 15 74 8
101 -13z m170 0 c39 -30 33 -54 -20 -85 -51 -30 -44 -48 13 -32 19 5 37 7 40
4 13 -13 -8 -34 -40 -40 -70 -13 -117 28 -117 101 0 32 5 46 22 57 31 22 70
20 102 -5z"/>
<path d="M868 489 c-22 -13 -23 -35 -2 -43 22 -9 34 1 34 30 0 26 -6 29 -32
13z"/>
<path d="M1363 373 c-7 -2 -13 -13 -13 -24 0 -14 7 -19 25 -19 29 0 45 28 24
41 -15 10 -18 10 -36 2z"/>
<path d="M1527 363 c-11 -10 -8 -43 4 -43 20 0 49 21 49 35 0 15 -40 21 -53 8z"/>
<path d="M1070 1676 c0 -13 -3 -32 -6 -41 -6 -13 -1 -16 22 -13 35 4 43 31 18
59 -23 26 -34 24 -34 -5z"/>
<path d="M1839 1002 c-9 -37 -15 -68 -14 -70 5 -6 48 19 73 41 27 25 28 58 4
80 -34 31 -46 21 -63 -51z"/>
<path d="M1177 958 c3 -13 9 -27 13 -33 4 -5 13 -28 20 -50 7 -22 15 -34 18
-27 3 10 7 10 20 0 9 -7 4 2 -11 21 -20 24 -25 36 -17 41 9 6 9 9 0 15 -6 4
-15 18 -20 31 -12 30 -30 32 -23 2z"/>
<path d="M1250 958 c0 -13 -3 -34 -6 -48 -4 -17 -3 -21 4 -12 7 11 10 10 16
-3 3 -9 6 -25 6 -35 0 -10 5 -22 12 -26 8 -5 9 -2 4 11 -6 18 -6 18 15 -1 l21
-19 -20 34 c-11 18 -18 39 -16 46 3 7 1 16 -5 20 -6 3 -11 15 -11 25 0 10 -4
22 -10 25 -6 3 -10 -4 -10 -17z"/>
<path d="M1316 941 c-3 -22 -11 -41 -17 -41 -5 0 -7 -5 -4 -10 5 -8 11 -7 21
1 12 9 14 5 14 -24 0 -20 4 -39 10 -42 6 -4 7 1 4 12 -5 16 -4 16 13 -2 26
-28 43 -29 43 -3 l1 23 19 -24 c23 -27 27 -6 5 23 -8 11 -15 26 -15 34 0 13 3
12 18 -1 17 -15 19 -15 36 1 18 16 18 16 13 -8 -3 -14 -9 -35 -12 -47 -5 -15
-3 -23 4 -23 6 0 11 9 11 19 0 31 16 33 29 4 6 -14 14 -23 18 -20 3 4 -2 23
-12 42 -9 20 -13 40 -9 43 3 4 9 1 11 -5 5 -15 43 -18 43 -3 0 5 -6 7 -14 4
-15 -6 -40 28 -41 55 0 21 -25 26 -25 4 0 -10 -9 -29 -20 -43 -19 -25 -19 -25
-34 -5 -9 11 -16 30 -16 43 0 12 -4 22 -10 22 -5 0 -10 -9 -10 -20 0 -11 -9
-29 -20 -40 -12 -12 -15 -22 -9 -26 6 -4 15 0 20 7 6 10 9 2 9 -23 0 -21 -4
-38 -9 -38 -12 0 -40 61 -34 76 2 6 -1 15 -6 19 -6 3 -9 11 -6 16 4 5 2 16 -3
25 -7 13 -11 7 -16 -25z"/>
<path d="M1580 951 c0 -11 -5 -23 -10 -26 -6 -4 -8 -16 -4 -27 3 -11 0 -33 -6
-49 -7 -16 -10 -32 -7 -36 4 -3 12 7 18 23 l11 29 9 -24 c5 -13 12 -21 16 -18
3 4 0 20 -7 37 -13 32 -6 55 10 30 7 -11 11 -11 24 -1 20 17 20 8 1 -29 -9
-17 -11 -30 -6 -30 5 0 12 6 14 13 4 9 8 8 17 -3 9 -12 10 -7 5 24 -5 33 -4
38 10 33 13 -6 14 -3 5 14 -6 11 -8 29 -5 39 4 12 2 20 -4 20 -6 0 -12 -4 -12
-10 -3 -19 -5 -25 -18 -49 l-13 -24 -18 23 c-9 13 -15 31 -13 41 3 11 0 19 -6
19 -6 0 -11 -9 -11 -19z"/>
<path d="M1254 782 c22 -26 58 -37 156 -52 104 -15 266 8 314 45 32 25 13 26
-45 3 -73 -30 -288 -32 -359 -4 -25 9 -54 20 -65 23 -20 6 -20 6 -1 -15z"/>
<path d="M2313 583 c-15 -5 -17 -49 -4 -58 13 -8 41 23 41 46 0 19 -12 23 -37
12z"/>
<path d="M2157 501 c-8 -31 7 -45 32 -32 17 10 19 15 11 31 -14 25 -36 26 -43
1z"/>
<path d="M2480 1865 c63 -63 118 -115 122 -115 3 0 -44 52 -106 115 -62 63
-117 115 -122 115 -5 0 43 -52 106 -115z"/>
<path d="M2848 1964 c13 -25 42 -50 42 -37 0 5 -12 20 -26 34 -24 21 -26 22
-16 3z"/>
<path d="M2560 1966 c0 -4 14 -21 30 -38 17 -16 30 -26 30 -21 0 5 -13 22 -30
38 -16 16 -30 25 -30 21z"/>
<path d="M2790 1969 c0 -9 142 -151 146 -146 2 1 -30 36 -71 77 -41 41 -75 72
-75 69z"/>
<path d="M617 1939 c12 -12 25 -20 28 -17 3 3 -7 13 -22 23 l-28 17 22 -23z"/>
<path d="M2485 1920 c21 -22 41 -40 44 -40 3 0 -13 18 -34 40 -21 22 -41 40
-44 40 -3 0 13 -18 34 -40z"/>
<path d="M466 1919 c51 -55 97 -99 103 -99 3 0 -24 29 -59 65 -66 66 -98 91
-44 34z"/>
<path d="M225 1870 c38 -38 72 -70 74 -70 3 0 -26 32 -64 70 -38 39 -72 70
-74 70 -3 0 26 -31 64 -70z"/>
<path d="M511 1933 c1 -5 24 -28 53 -53 l51 -44 -50 52 c-50 53 -56 58 -54 45z"/>
<path d="M2300 1938 c0 -3 11 -17 25 -32 14 -15 25 -23 25 -18 0 5 -11 19 -25
32 -14 13 -25 21 -25 18z"/>
<path d="M2360 1932 c0 -9 37 -44 60 -58 8 -4 -1 9 -20 29 -37 39 -40 42 -40
29z"/>
<path d="M2770 1925 c20 -25 88 -91 107 -105 10 -8 -11 16 -47 53 -59 62 -90
88 -60 52z"/>
<path d="M0 1927 c0 -9 132 -138 136 -134 2 2 -28 34 -66 72 -39 38 -70 66
-70 62z"/>
<path d="M2815 1820 c55 -55 102 -100 105 -100 2 0 -40 45 -95 100 -55 55
-102 100 -105 100 -2 0 40 -45 95 -100z"/>
<path d="M130 1907 c0 -2 14 -16 32 -33 30 -28 30 -17 0 19 -13 15 -32 23 -32
14z"/>
<path d="M2943 1865 c62 -58 74 -58 17 0 -24 25 -49 45 -55 45 -5 0 12 -21 38
-45z"/>
<path d="M90 1894 c0 -5 9 -17 20 -27 11 -9 20 -13 20 -8 0 4 -9 16 -20 26
-11 10 -20 14 -20 9z"/>
<path d="M320 1893 c0 -12 38 -48 45 -41 3 2 -6 15 -20 28 -14 13 -25 19 -25
13z"/>
<path d="M465 1860 c21 -22 41 -40 43 -40 9 0 -63 78 -73 79 -5 1 9 -17 30
-39z"/>
<path d="M2695 1880 c10 -11 23 -20 28 -20 6 0 2 9 -8 20 -10 11 -23 20 -28
20 -6 0 -2 -9 8 -20z"/>
<path d="M2366 1867 c2 -7 14 -19 27 -26 21 -13 21 -12 -2 13 -27 29 -33 32
-25 13z"/>
<path d="M2650 1877 c0 -3 32 -38 70 -76 39 -38 70 -66 70 -62 0 4 -31 38 -70
76 -38 38 -70 66 -70 62z"/>
<path d="M2630 1775 c30 -33 56 -62 58 -64 1 -2 4 -2 7 0 2 3 -24 32 -58 65
l-62 59 55 -60z"/>
<path d="M390 1816 c0 -2 19 -19 43 -37 l42 -33 -34 37 c-31 33 -51 46 -51 33z"/>
<path d="M2788 1790 c12 -11 24 -20 28 -20 4 0 -1 9 -11 20 -10 11 -23 20 -28
20 -6 0 -1 -9 11 -20z"/>
<path d="M190 1733 c0 -5 13 -17 28 -27 l27 -19 -24 26 c-26 28 -31 32 -31 20z"/>
<path d="M110 1695 c19 -19 36 -35 38 -35 8 0 -53 69 -62 69 -6 1 5 -15 24
-34z"/>
<path d="M2949 1686 c14 -15 26 -26 28 -26 9 0 -24 40 -37 45 -8 4 -4 -5 9
-19z"/>
<path d="M104 1645 c15 -14 30 -25 33 -25 4 0 -4 11 -17 25 -13 14 -28 25 -33
25 -6 0 2 -11 17 -25z"/>
<path d="M2751 1653 c0 -5 14 -19 32 -32 l32 -25 -29 32 c-31 33 -36 37 -35
25z"/>
<path d="M80 1615 c22 -30 50 -57 50 -47 0 4 -14 21 -32 38 -18 16 -26 20 -18
9z"/>
<path d="M2840 1627 c0 -2 15 -16 33 -33 l32 -29 -29 33 c-28 30 -36 37 -36
29z"/>
<path d="M2940 1582 c0 -5 15 -19 33 -32 l32 -23 -29 31 c-31 34 -36 37 -36
24z"/>
<path d="M90 1545 c19 -19 36 -35 39 -35 3 0 -10 16 -29 35 -19 19 -36 35 -39
35 -3 0 10 -16 29 -35z"/>
<path d="M2910 1495 c47 -47 87 -85 90 -85 2 0 -33 38 -80 85 -47 47 -87 85
-90 85 -2 0 33 -38 80 -85z"/>
<path d="M2950 1518 c41 -45 50 -53 50 -45 0 2 -21 23 -47 47 l-48 45 45 -47z"/>
<path d="M90 1485 c19 -19 36 -35 39 -35 3 0 -10 16 -29 35 -19 19 -36 35 -39
35 -3 0 10 -16 29 -35z"/>
<path d="M2890 1455 c13 -14 26 -23 28 -20 7 7 -29 45 -41 45 -6 0 0 -11 13
-25z"/>
<path d="M2955 1390 c16 -16 31 -27 34 -25 6 6 -44 55 -55 55 -4 0 5 -13 21
-30z"/>
<path d="M2910 576 c0 -4 9 -16 20 -28 11 -12 20 -17 20 -11 0 5 -9 18 -20 28
-11 10 -20 15 -20 11z"/>
<path d="M2906 518 c45 -49 85 -88 92 -88 4 0 -20 27 -53 60 -63 64 -89 82
-39 28z"/>
<path d="M10 527 c0 -2 15 -16 33 -33 l32 -29 -29 33 c-28 30 -36 37 -36 29z"/>
<path d="M2960 520 c0 -5 10 -15 23 -21 22 -12 22 -12 3 10 -21 23 -26 26 -26
11z"/>
<path d="M2900 467 c0 -2 15 -16 33 -33 l32 -29 -29 33 c-28 30 -36 37 -36 29z"/>
<path d="M30 452 c0 -5 7 -15 15 -22 8 -7 15 -8 15 -2 0 5 -7 15 -15 22 -8 7
-15 8 -15 2z"/>
<path d="M175 360 c55 -57 101 -106 103 -109 1 -2 4 -2 7 0 2 3 -44 52 -103
110 l-107 104 100 -105z"/>
<path d="M2810 446 c0 -11 30 -39 36 -34 2 3 -5 13 -16 23 -11 10 -20 15 -20
11z"/>
<path d="M10 415 c27 -37 50 -59 50 -49 0 6 -14 23 -32 40 -18 16 -26 20 -18
9z"/>
<path d="M2860 392 c0 -5 7 -15 15 -22 8 -7 15 -8 15 -2 0 5 -7 15 -15 22 -8
7 -15 8 -15 2z"/>
<path d="M2750 387 c0 -2 15 -16 33 -33 l32 -29 -29 33 c-28 30 -36 37 -36 29z"/>
<path d="M2959 346 c29 -31 35 -33 22 -7 -6 10 -18 22 -28 25 -13 5 -11 1 6
-18z"/>
<path d="M2900 354 c0 -5 23 -32 50 -59 28 -27 50 -45 50 -39 0 5 -22 32 -50
59 -27 27 -50 45 -50 39z"/>
<path d="M80 343 c0 -5 17 -21 38 -37 l37 -29 -34 36 c-36 39 -41 42 -41 30z"/>
<path d="M2880 315 c19 -19 36 -35 39 -35 3 0 -10 16 -29 35 -19 19 -36 35
-39 35 -3 0 10 -16 29 -35z"/>
<path d="M170 314 c0 -5 18 -28 40 -49 22 -21 40 -35 40 -30 -1 14 -80 92 -80
79z"/>
<path d="M2858 277 c22 -24 64 -66 93 -93 30 -26 14 -7 -36 44 -93 95 -128
125 -57 49z"/>
<path d="M2730 293 c0 -5 14 -22 30 -38 17 -16 30 -26 30 -23 0 3 -13 20 -30
38 -16 18 -30 28 -30 23z"/>
<path d="M102 261 c13 -16 30 -32 38 -36 8 -3 -1 10 -19 29 -42 44 -51 46 -19
7z"/>
<path d="M160 261 c0 -10 86 -91 97 -91 4 0 -15 23 -42 50 -52 53 -55 55 -55
41z"/>
<path d="M406 248 c29 -35 95 -98 102 -98 4 0 -20 27 -53 60 -60 61 -84 79
-49 38z"/>
<path d="M2700 264 c0 -5 9 -17 20 -27 11 -9 20 -13 20 -8 0 4 -9 16 -20 26
-11 10 -20 14 -20 9z"/>
<path d="M2840 235 c33 -35 40 -39 40 -30 0 7 -59 65 -67 65 -4 0 8 -16 27
-35z"/>
<path d="M2960 235 c19 -19 36 -35 39 -35 3 0 -10 16 -29 35 -19 19 -36 35
-39 35 -3 0 10 -16 29 -35z"/>
<path d="M310 227 c0 -2 15 -16 33 -33 l32 -29 -29 33 c-28 30 -36 37 -36 29z"/>
<path d="M2550 177 c25 -25 47 -43 49 -41 6 6 -50 64 -74 76 -11 6 0 -10 25
-35z"/>
<path d="M2585 200 c10 -11 20 -20 22 -20 2 0 -1 9 -7 20 -6 11 -16 20 -22 20
-6 0 -3 -9 7 -20z"/>
<path d="M80 165 c44 -45 50 -50 50 -40 0 8 -79 85 -87 85 -4 0 13 -20 37 -45z"/>
<path d="M216 148 c31 -35 67 -69 78 -77 12 -8 -13 21 -54 63 -41 42 -76 76
-78 76 -2 0 22 -28 54 -62z"/>
<path d="M2706 197 c2 -7 14 -19 27 -26 21 -13 21 -12 -2 13 -27 29 -33 32
-25 13z"/>
<path d="M2778 180 c17 -16 34 -30 38 -30 4 0 -5 14 -21 30 -16 17 -33 30 -38
30 -5 0 5 -13 21 -30z"/>
<path d="M400 195 c0 -7 59 -65 85 -84 11 -8 -2 8 -30 37 -49 52 -55 57 -55
47z"/>
<path d="M2490 187 c0 -2 15 -16 33 -33 l32 -29 -29 33 c-28 30 -36 37 -36 29z"/>
<path d="M2848 175 c11 -21 52 -63 52 -52 0 3 -14 21 -31 39 -17 18 -27 24
-21 13z"/>
<path d="M310 173 c0 -5 9 -18 20 -28 11 -10 20 -15 20 -11 0 4 -9 16 -20 28
-11 12 -20 17 -20 11z"/>
<path d="M570 135 c43 -45 49 -45 13 0 -15 19 -32 35 -37 35 -6 0 5 -16 24
-35z"/>
<path d="M285 131 c17 -16 32 -27 34 -25 7 6 -41 54 -53 54 -6 0 3 -13 19 -29z"/>
<path d="M2530 85 c41 -44 76 -81 78 -84 1 -2 4 -2 7 0 2 3 -33 41 -78 85
l-82 79 75 -80z"/>
<path d="M620 147 c0 -2 15 -16 33 -33 l32 -29 -29 33 c-28 30 -36 37 -36 29z"/>
<path d="M522 132 c2 -5 35 -37 73 -72 l70 -64 -70 72 c-67 70 -80 81 -73 64z"/>
<path d="M2395 100 c16 -16 33 -30 39 -30 12 0 -46 59 -58 60 -6 0 3 -13 19
-30z"/>
<path d="M2840 127 c0 -4 25 -32 55 -62 30 -29 55 -50 55 -47 0 4 -25 32 -55
62 -30 30 -55 51 -55 47z"/>
<path d="M2566 107 c2 -7 14 -19 27 -26 21 -13 21 -12 -2 13 -27 29 -33 32
-25 13z"/>
<path d="M2791 113 c0 -5 14 -19 32 -32 l32 -25 -29 32 c-31 33 -36 37 -35 25z"/>
<path d="M175 71 c21 -22 41 -41 43 -41 8 0 -44 58 -63 70 -11 7 -2 -6 20 -29z"/>
<path d="M480 55 c30 -30 57 -55 59 -55 3 0 -19 25 -49 55 -30 30 -57 55 -59
55 -3 0 19 -25 49 -55z"/>
<path d="M2450 107 c0 -2 14 -16 32 -33 29 -26 22 -10 -9 23 -11 12 -23 17
-23 10z"/>
<path d="M50 85 c12 -19 80 -81 80 -73 0 2 -21 24 -46 48 -26 25 -41 36 -34
25z"/>
<path d="M356 60 c16 -16 30 -27 33 -25 6 7 -40 55 -52 55 -5 0 4 -13 19 -30z"/>
<path d="M516 75 c4 -9 16 -21 28 -27 19 -10 19 -9 -3 16 -28 30 -33 32 -25
11z"/>
<path d="M2280 47 c41 -44 50 -52 50 -44 0 2 -21 23 -47 47 l-48 45 45 -48z"/>
<path d="M2366 77 c3 -8 19 -24 37 -37 l32 -23 -34 37 c-38 40 -43 43 -35 23z"/>
<path d="M2800 47 c41 -44 50 -52 50 -44 0 2 -21 23 -47 47 l-48 45 45 -48z"/>
<path d="M265 40 c21 -22 41 -40 44 -40 3 0 -13 18 -34 40 -21 22 -41 40 -44
40 -3 0 13 -18 34 -40z"/>
<path d="M836 47 c2 -7 14 -19 27 -26 21 -13 21 -12 -2 13 -27 29 -33 32 -25
13z"/>
<path d="M2220 45 c7 -8 17 -15 22 -15 6 0 5 7 -2 15 -7 8 -17 15 -22 15 -6 0
-5 -7 2 -15z"/>
<path d="M2680 54 c0 -6 11 -20 25 -32 14 -12 25 -18 25 -14 0 5 -11 19 -25
32 -14 13 -25 19 -25 14z"/>
<path d="M320 43 c0 -13 29 -38 35 -31 3 3 -4 13 -15 23 -11 10 -20 13 -20 8z"/>
<path d="M2127 25 c10 -13 22 -25 27 -25 5 0 -1 11 -14 25 -30 32 -36 32 -13
0z"/>
</g>
</svg>
