<?xml version="1.0" standalone="no"?>
<!DOCTYPE svg PUBLIC "-//W3C//DTD SVG 20010904//EN"
 "http://www.w3.org/TR/2001/REC-SVG-20010904/DTD/svg10.dtd">
<svg version="1.0" xmlns="http://www.w3.org/2000/svg"
 width="450.000000pt" height="300.000000pt" viewBox="0 0 450.000000 300.000000"
 preserveAspectRatio="xMidYMid meet">
<metadata>
Created by potrace 1.10, written by Peter Selinger 2001-2011
</metadata>
<g transform="translate(0.000000,300.000000) scale(0.100000,-0.100000)"
fill="#000000" stroke="none">
<path d="M140 2996 c0 -3 14 -14 30 -26 35 -25 40 -20 8 10 -20 18 -38 26 -38
16z"/>
<path d="M240 2999 c0 -10 231 -241 236 -236 5 5 -59 71 -184 192 -29 27 -52
47 -52 44z"/>
<path d="M345 2970 c17 -16 48 -47 70 -69 22 -22 42 -38 44 -35 7 6 -121 134
-134 134 -5 0 4 -13 20 -30z"/>
<path d="M410 2996 c0 -10 62 -66 73 -66 5 0 -1 10 -15 23 -39 36 -58 50 -58
43z"/>
<path d="M500 2996 c0 -10 122 -127 127 -122 3 3 -22 33 -56 66 -57 55 -71 66
-71 56z"/>
<path d="M956 2968 c50 -54 146 -143 158 -146 6 -2 -31 37 -82 87 -89 88 -137
125 -76 59z"/>
<path d="M1545 2980 c10 -11 23 -20 28 -20 6 0 2 9 -8 20 -10 11 -23 20 -28
20 -6 0 -2 -9 8 -20z"/>
<path d="M2930 2984 c8 -8 23 -20 34 -26 19 -10 18 -8 -3 16 -26 27 -53 37
-31 10z"/>
<path d="M3106 2985 c4 -9 15 -20 25 -26 11 -5 19 -14 19 -20 0 -12 34 -43 65
-60 11 -6 -9 18 -45 55 -35 36 -66 66 -67 66 -1 0 0 -7 3 -15z"/>
<path d="M3191 2983 c14 -23 76 -73 65 -53 -15 25 -40 51 -59 62 -16 8 -16 7
-6 -9z"/>
<path d="M3745 2950 c27 -27 51 -47 54 -45 5 6 -85 95 -96 95 -4 0 15 -22 42
-50z"/>
<path d="M3832 2950 c28 -28 53 -48 57 -45 6 6 -87 94 -100 95 -4 0 16 -23 43
-50z"/>
<path d="M3880 2992 c0 -5 7 -15 15 -22 8 -7 15 -8 15 -2 0 5 -7 15 -15 22 -8
7 -15 8 -15 2z"/>
<path d="M3984 2975 c13 -14 27 -25 31 -25 5 0 -2 11 -15 25 -13 14 -27 25
-31 25 -5 0 2 -11 15 -25z"/>
<path d="M4316 2985 c3 -7 12 -16 19 -19 9 -3 12 0 9 9 -3 7 -12 16 -19 19 -9
3 -12 0 -9 -9z"/>
<path d="M4431 2955 c23 -24 45 -42 48 -40 6 7 -70 85 -82 85 -5 0 10 -20 34
-45z"/>
<path d="M680 2986 c0 -9 64 -65 69 -60 6 5 -50 64 -61 64 -4 0 -8 -2 -8 -4z"/>
<path d="M770 2984 c0 -9 207 -214 216 -214 9 0 -158 175 -193 203 -13 10 -23
15 -23 11z"/>
<path d="M3051 2950 c22 -22 42 -40 46 -40 4 0 -11 18 -32 40 -21 22 -42 40
-46 40 -4 0 11 -18 32 -40z"/>
<path d="M3450 2985 c0 -8 54 -54 63 -55 5 0 -5 14 -21 30 -29 29 -42 36 -42
25z"/>
<path d="M90 2974 c0 -11 90 -98 96 -92 2 2 -19 26 -46 53 -28 27 -50 45 -50
39z"/>
<path d="M2085 2974 c-229 -16 -452 -49 -620 -90 -754 -187 -1295 -622 -1427
-1149 -30 -117 -29 -367 1 -481 84 -322 302 -598 648 -820 286 -184 593 -300
968 -369 143 -26 167 -28 360 -45 112 -9 520 -6 565 4 14 3 50 8 80 10 30 2
107 13 170 25 583 102 1058 339 1363 680 163 183 279 421 292 604 l6 72 -19
-50 c-11 -27 -29 -86 -41 -130 -26 -91 -90 -237 -135 -304 -69 -105 -224 -281
-246 -281 -4 0 -10 -6 -13 -13 -3 -7 -31 -33 -63 -57 -33 -24 -67 -52 -77 -62
-10 -10 -22 -18 -27 -18 -5 0 -15 -6 -22 -13 -17 -15 -96 -67 -103 -67 -3 0
-31 -16 -61 -35 -30 -19 -56 -35 -58 -35 -2 0 -37 -15 -78 -34 -149 -68 -315
-130 -418 -155 -270 -65 -357 -80 -345 -61 4 6 9 9 12 6 8 -8 88 42 85 53 -3
13 40 15 53 2 29 -28 133 -3 170 41 23 28 26 28 66 18 36 -10 49 -8 94 10 31
13 58 31 66 46 11 22 18 24 54 21 63 -7 165 50 165 91 0 10 8 12 29 7 52 -11
151 48 151 92 0 7 6 14 13 14 53 5 71 11 100 31 40 28 56 48 57 70 0 15 53 42
63 32 10 -11 78 69 84 97 4 23 15 34 44 45 49 20 75 57 81 117 1 9 7 17 13 17
38 0 100 107 81 139 -4 5 2 15 13 20 10 6 29 27 41 46 18 29 21 44 16 80 -5
32 -3 46 7 52 37 21 48 87 21 128 -15 23 -15 26 10 56 31 37 33 67 6 102 -20
25 -20 28 -5 57 13 24 14 38 5 69 -6 21 -17 42 -26 45 -13 5 -15 15 -10 51 8
49 -10 96 -44 118 -13 8 -20 23 -20 44 0 49 -15 77 -54 104 -29 19 -36 30 -36
57 0 25 -9 42 -40 72 -22 22 -45 39 -51 37 -6 -1 -18 17 -27 39 -9 23 -23 49
-31 57 -15 19 -68 47 -88 47 -7 0 -18 11 -23 24 -20 55 -72 94 -129 98 -17 1
-31 6 -31 12 0 16 -51 76 -65 76 -7 0 -15 5 -17 11 -2 6 -27 14 -55 16 -43 5
-52 9 -57 29 -3 12 -15 26 -26 29 -11 3 -20 10 -20 14 0 14 -77 34 -110 29
-25 -4 -36 1 -54 22 -38 46 -72 62 -127 62 -28 0 -54 -5 -58 -11 -4 -6 -14 1
-24 19 -10 17 -38 38 -65 51 -42 19 -53 20 -104 10 -57 -12 -58 -11 -86 17
-38 39 -121 50 -166 22 l-31 -19 -38 34 c-24 22 -44 32 -54 28 -11 -4 -14 -3
-9 5 9 16 64 10 281 -27 80 -14 107 -21 158 -37 26 -9 53 -17 60 -18 7 -2 30
-6 52 -11 22 -4 45 -12 51 -17 7 -5 16 -7 21 -6 7 3 39 -9 203 -77 30 -12 71
-28 90 -35 19 -7 43 -20 54 -29 10 -9 20 -15 22 -13 12 7 315 -176 344 -208 3
-3 39 -33 80 -67 78 -63 141 -129 193 -200 17 -24 34 -43 39 -43 4 0 8 -5 8
-11 0 -5 17 -36 39 -67 53 -80 95 -174 132 -300 17 -59 38 -123 46 -142 13
-34 14 -33 8 35 -20 274 -224 592 -526 822 -354 269 -802 437 -1328 498 -126
14 -452 26 -546 19z m200 -45 c-11 -7 -28 -20 -38 -30 -23 -24 -38 -24 -67 1
-24 21 -34 23 -89 20 -59 -3 -75 -9 -94 -31 -18 -22 -20 -22 -97 6 -24 9 -52
14 -62 12 -10 -3 -18 -1 -18 5 0 6 13 8 30 6 16 -3 54 0 84 6 80 16 377 20
351 5z m244 -5 c25 -7 37 -13 26 -14 -39 -3 -55 -8 -71 -24 -21 -21 -37 -20
-51 3 -7 11 -26 22 -42 26 -17 4 -33 11 -37 16 -8 14 119 9 175 -7z m-729 -25
c0 -5 -4 -9 -9 -9 -5 0 -22 -13 -37 -30 -26 -27 -30 -28 -51 -15 -45 30 -160
9 -193 -35 -16 -21 -21 -22 -61 -12 -64 15 -105 5 -147 -36 -33 -32 -42 -36
-82 -33 -57 3 -110 -19 -145 -60 -24 -29 -33 -33 -76 -32 -29 0 -53 -5 -60
-13 -6 -8 -18 -14 -25 -14 -7 0 -24 -18 -36 -40 -17 -30 -28 -39 -41 -36 -39
10 -137 -41 -137 -71 0 -7 -5 -13 -11 -13 -6 0 -8 -7 -5 -17 4 -10 4 -15 1
-11 -10 10 -77 -12 -105 -34 -32 -25 -60 -68 -54 -83 3 -7 -8 -15 -27 -19 -37
-7 -113 -81 -105 -102 3 -8 -2 -20 -11 -26 -58 -45 -103 -100 -103 -126 0 -18
-10 -38 -26 -53 -36 -34 -57 -77 -51 -108 4 -19 -3 -34 -24 -59 -32 -36 -37
-60 -24 -113 4 -17 1 -31 -8 -41 -14 -13 -28 -46 -33 -77 -3 -18 27 -71 39
-71 5 0 -3 -14 -17 -31 -33 -38 -33 -70 -2 -104 20 -22 23 -31 15 -51 -17 -45
-10 -82 21 -117 20 -23 27 -40 24 -55 -9 -33 14 -86 46 -111 22 -16 30 -30 30
-52 0 -42 27 -84 67 -106 21 -11 33 -25 33 -38 0 -36 37 -82 87 -107 33 -16
49 -30 47 -41 -5 -35 51 -81 123 -102 12 -3 25 -14 28 -24 14 -46 107 -108
145 -98 11 3 20 1 20 -4 0 -5 16 -26 35 -48 35 -38 77 -56 124 -51 15 1 36
-11 60 -34 50 -48 104 -69 158 -61 29 4 43 3 43 -5 0 -42 117 -89 169 -68 40
17 51 17 51 4 0 -15 29 -43 50 -48 8 -2 17 -6 20 -10 13 -17 87 -17 119 0 l33
18 37 -38 c36 -35 40 -37 98 -35 44 2 67 7 82 21 21 19 22 19 55 -13 33 -32
37 -33 104 -29 48 2 74 9 86 21 22 22 25 22 54 -5 20 -19 35 -23 92 -23 58 0
72 4 94 24 23 21 28 23 56 11 16 -7 30 -16 30 -21 0 -4 17 -7 38 -5 20 2 49 4
64 5 14 0 40 13 57 27 l31 26 47 -19 c27 -10 51 -17 56 -15 4 1 7 -2 7 -6 0
-11 -186 -36 -200 -27 -5 3 -10 1 -10 -5 0 -5 -12 -10 -27 -10 -16 0 -107 -2
-203 -6 -217 -7 -515 21 -725 68 -49 11 -100 22 -112 23 -12 2 -51 12 -85 24
-35 11 -74 22 -88 25 -34 7 -195 63 -247 87 -23 10 -48 19 -55 19 -8 0 -18 4
-23 9 -6 5 -57 33 -115 63 -131 67 -219 124 -355 231 -43 33 -215 204 -215
213 0 2 -9 15 -21 27 -29 31 -109 152 -109 166 0 6 -3 11 -7 11 -5 0 -17 21
-27 48 -11 26 -26 63 -35 82 -8 19 -16 40 -17 45 -1 6 -11 44 -22 85 -39 151
-45 225 -27 330 27 158 60 259 118 370 55 104 175 260 257 335 96 89 118 107
155 133 22 15 42 30 45 33 4 5 39 28 111 74 9 5 35 20 57 32 22 13 43 27 47
33 3 5 13 10 20 10 8 0 36 14 62 30 26 17 53 30 60 30 7 0 40 13 72 29 33 16
86 37 118 47 32 9 67 23 78 31 11 7 32 13 47 13 15 0 51 9 80 19 56 21 204 54
338 77 19 3 36 7 37 8 7 6 53 2 53 -5z m354 -20 c34 -16 39 -36 16 -59 -28
-28 -128 -28 -161 -1 -23 19 -23 20 -5 40 11 12 34 21 60 24 22 2 46 4 53 5 7
1 23 -3 37 -9z m257 -7 c56 -46 -50 -95 -136 -62 -68 26 -27 80 60 80 36 0 60
-6 76 -18z m244 -22 c8 -7 15 -18 15 -26 0 -19 -36 -41 -62 -38 -13 1 -37 3
-54 3 -18 1 -42 10 -55 20 -20 16 -22 23 -13 38 19 32 132 34 169 3z m-727 0
c42 -40 0 -70 -101 -73 -40 -1 -67 17 -67 44 0 23 15 32 65 40 68 11 80 10
103 -11z m912 -16 c22 -4 46 -14 54 -23 14 -15 14 -19 0 -39 -12 -17 -25 -22
-57 -21 -99 1 -152 49 -90 83 15 8 34 13 41 11 8 -3 31 -8 52 -11z m-1149 -22
c42 -34 7 -66 -87 -79 -34 -4 -46 -1 -63 16 -30 30 -14 57 42 69 64 15 83 14
108 -6z m539 -10 c0 -34 137 -43 187 -12 18 10 35 15 38 11 11 -19 97 -51 136
-51 22 0 54 8 70 17 29 17 30 17 52 -10 27 -34 109 -49 172 -31 38 10 41 10
57 -16 20 -34 97 -55 161 -46 37 6 43 4 52 -16 14 -32 71 -57 132 -58 47 0 54
-3 77 -33 26 -34 79 -57 140 -61 15 -1 32 -10 38 -19 21 -38 61 -67 111 -82
42 -12 56 -22 70 -48 20 -36 63 -67 94 -67 24 0 43 -19 43 -41 0 -23 57 -79
92 -91 19 -7 28 -17 28 -31 0 -32 35 -83 67 -99 21 -10 29 -22 35 -57 8 -45
41 -91 65 -91 10 0 12 -10 7 -38 -6 -39 16 -102 35 -102 15 0 21 -29 11 -55
-10 -27 5 -83 27 -100 12 -9 11 -16 -3 -44 -21 -42 -21 -77 0 -100 21 -23 20
-30 -3 -55 -26 -29 -41 -87 -27 -108 8 -13 6 -22 -11 -40 -33 -37 -45 -68 -39
-100 4 -20 1 -30 -9 -34 -23 -9 -75 -95 -75 -123 0 -19 -9 -30 -33 -41 -22
-10 -40 -31 -56 -65 -18 -37 -35 -55 -65 -70 -28 -15 -47 -35 -65 -68 -20 -39
-28 -47 -52 -47 -32 0 -104 -57 -114 -91 -9 -26 -65 -27 -65 -1 0 10 -18 38
-40 62 -22 24 -40 50 -40 59 0 9 20 37 45 63 64 69 71 128 20 172 -24 21 -36
24 -69 19 -23 -3 -68 -7 -100 -8 -53 -2 -63 -6 -83 -31 -13 -16 -23 -35 -23
-42 0 -9 -13 -12 -48 -8 -35 3 -53 -1 -68 -13 -24 -19 -47 -57 -51 -86 -6 -40
-13 -47 -38 -43 -14 3 -36 -3 -52 -13 -35 -24 -43 -24 -43 -1 0 10 -14 31 -31
48 -29 28 -31 28 -59 12 -29 -16 -29 -16 -49 18 -17 29 -26 34 -57 34 -20 0
-48 -6 -62 -14 -15 -8 -52 -26 -82 -39 -68 -29 -108 -65 -116 -103 -4 -24 1
-36 25 -62 28 -29 143 -92 168 -92 6 0 17 -8 24 -17 10 -11 10 -14 2 -9 -8 4
-13 2 -13 -4 0 -8 -18 -10 -60 -5 -49 5 -64 3 -84 -12 -33 -24 -35 -71 -3
-101 20 -18 32 -21 97 -18 87 4 142 28 190 83 29 33 33 34 60 23 33 -14 51 -6
94 40 16 17 32 28 35 23 9 -13 64 -47 79 -49 24 -4 74 52 68 75 -17 59 -18 56
27 56 30 0 52 8 78 28 20 15 38 27 41 27 2 0 19 -23 37 -50 29 -44 83 -88 103
-82 4 1 -3 -13 -15 -32 -17 -25 -28 -32 -45 -29 -40 6 -96 -15 -132 -51 -30
-30 -42 -35 -81 -36 -58 0 -111 -22 -137 -55 -18 -23 -26 -25 -56 -19 -63 11
-123 -4 -160 -40 -30 -31 -35 -32 -57 -20 -47 26 -115 15 -181 -29 -24 -17
-29 -17 -57 -3 -46 24 -112 20 -155 -9 -44 -30 -42 -30 -91 -5 -48 24 -110 21
-161 -10 l-36 -20 -31 26 c-28 24 -37 26 -98 22 -45 -2 -74 -9 -86 -20 -18
-16 -20 -16 -45 11 -38 40 -143 55 -182 26 -17 -13 -21 -11 -46 14 -48 47
-136 64 -180 34 -16 -11 -25 -13 -28 -5 -17 51 -86 85 -167 81 -35 -2 -48 2
-60 17 -8 10 -15 22 -15 25 0 14 -86 44 -121 43 -32 -1 -43 4 -63 31 -28 37
-81 65 -123 66 -21 0 -35 10 -58 42 -23 32 -43 46 -80 59 -40 13 -54 24 -70
54 -14 26 -36 45 -72 63 -29 15 -52 33 -52 42 -1 27 -58 96 -85 103 -15 4 -26
14 -26 24 -1 33 -37 97 -63 111 -19 10 -27 22 -27 42 0 36 -13 69 -39 96 -15
16 -21 35 -21 71 0 34 -6 57 -20 74 -16 21 -18 35 -13 76 4 37 1 56 -11 73
-20 29 -21 55 -2 62 21 8 31 73 16 101 -10 20 -8 28 15 62 21 31 26 47 22 77
-4 31 -1 43 16 60 30 30 47 64 47 97 0 20 11 36 40 60 37 30 57 68 52 96 -1 5
13 18 32 27 36 17 79 67 91 105 3 12 11 20 16 17 5 -4 9 -2 9 4 0 6 6 8 13 5
16 -6 83 54 91 83 5 14 18 24 39 29 43 9 108 52 114 75 3 10 9 16 14 13 5 -3
9 1 9 9 0 9 12 14 35 15 46 2 108 35 134 70 16 23 27 29 48 26 16 -2 45 2 65
8 42 12 101 65 91 81 -4 7 0 8 13 2 31 -14 106 -13 139 3 17 7 40 25 51 39 18
21 25 23 43 14 l22 -12 -20 -26 c-27 -33 -37 -94 -47 -286 -5 -104 -4 -121 12
-138 38 -42 107 -9 117 58 7 47 14 53 57 53 31 0 42 -5 51 -22 35 -66 112 -60
141 11 9 21 12 23 15 8 5 -20 41 -37 78 -37 14 0 34 13 49 31 29 34 32 66 16
164 -12 78 -18 133 -19 171 -1 19 -11 42 -27 59 -36 39 -18 77 20 40 8 -9 33
-15 56 -15 38 0 41 -2 34 -22 -10 -34 -9 -57 5 -117 10 -37 12 -85 8 -151 -7
-110 2 -134 53 -145 40 -9 75 14 89 58 12 36 9 329 -4 360 -4 10 -16 22 -26
28 -23 12 -25 29 -4 29 8 0 15 -4 15 -8z m853 -28 c38 -13 47 -20 47 -40 0
-37 -33 -49 -99 -34 -64 14 -81 25 -81 51 0 39 57 49 133 23z m-1609 -26 c21
-29 8 -43 -59 -64 -45 -14 -58 -15 -84 -4 -70 29 -11 87 91 89 27 1 41 -5 52
-21z m331 -2 c34 -9 49 -18 46 -27 -8 -28 -3 -75 13 -129 10 -30 18 -90 20
-132 2 -71 1 -78 -16 -78 -12 0 -16 4 -12 11 3 6 1 15 -5 19 -7 4 -13 13 -15
21 -5 30 -18 59 -26 59 -4 0 -26 28 -48 63 -21 34 -56 82 -76 106 l-37 44 28
12 c15 7 34 19 42 28 16 20 22 20 86 3z m415 2 c0 -7 2 -84 5 -172 6 -189 -5
-224 -65 -210 -32 7 -40 22 -29 51 12 31 12 182 0 219 -22 68 -22 83 -1 104
23 23 90 28 90 8z m-238 -98 c3 -47 12 -115 19 -151 13 -74 6 -134 -17 -147
-8 -5 -27 -7 -42 -4 l-27 4 -2 106 c-1 82 -6 120 -22 162 -12 30 -21 63 -21
72 0 25 40 49 75 46 l30 -3 7 -85z m1326 50 c64 -29 51 -80 -22 -80 -43 0
-116 37 -116 59 0 43 68 53 138 21z m-2057 -18 c29 -24 20 -47 -27 -67 -56
-23 -86 -26 -111 -10 -37 25 -29 50 25 73 59 26 83 27 113 4z m419 -53 c22
-27 52 -72 67 -100 16 -27 36 -52 46 -55 10 -3 17 -15 17 -31 0 -13 9 -36 20
-50 26 -34 25 -62 -2 -72 -33 -12 -46 -4 -69 40 -21 43 -46 49 -108 28 -37
-13 -51 -35 -51 -81 0 -40 -15 -58 -48 -58 l-24 0 7 123 c13 217 21 269 45
289 35 29 57 22 100 -33z m1830 -12 c25 -13 46 -30 48 -41 5 -23 -23 -46 -54
-46 -24 0 -110 36 -119 49 -9 15 6 42 29 51 32 13 47 11 96 -13z m-2445 -27
c24 -26 15 -44 -37 -69 -55 -26 -90 -27 -112 -2 -24 27 -18 39 34 67 54 29 91
30 115 4z m2648 -86 c20 -13 37 -28 37 -33 0 -14 -27 -39 -50 -46 -21 -7 -102
28 -122 52 -24 29 23 67 72 57 14 -3 42 -16 63 -30z m-2829 -20 c24 -23 20
-30 -28 -64 -52 -35 -88 -38 -116 -10 -24 24 -19 39 23 67 38 26 99 30 121 7z
m2988 -90 c42 -29 49 -58 19 -74 -37 -19 -76 -11 -117 24 -39 34 -39 34 -20
55 26 29 72 27 118 -5z m-3155 -26 c23 -19 14 -45 -25 -72 -40 -28 -71 -32
-103 -16 -36 20 -16 64 46 99 21 12 61 6 82 -11z m3306 -106 c46 -43 31 -82
-33 -82 -28 0 -44 8 -68 33 -35 36 -35 58 1 75 30 14 67 4 100 -26z m-3446
-24 c20 -16 15 -39 -14 -70 -21 -22 -36 -28 -69 -28 -54 0 -73 20 -53 57 29
54 96 74 136 41z m3570 -116 c40 -48 24 -82 -38 -82 -29 0 -43 7 -63 31 -32
38 -33 62 -3 77 33 17 79 6 104 -26z m-3690 -24 c18 -15 16 -36 -8 -69 -17
-24 -27 -29 -63 -29 -73 0 -84 29 -31 85 29 32 39 36 62 30 15 -3 34 -11 40
-17z m3766 -100 c9 -7 23 -26 31 -43 14 -26 14 -31 -1 -47 -22 -24 -78 -23
-103 2 -30 30 -37 70 -15 87 24 16 66 17 88 1z m-3859 -44 c35 -13 4 -97 -39
-108 -32 -8 -79 13 -83 37 -2 9 6 30 18 47 16 23 29 30 55 30 18 0 40 -3 49
-6z m3935 -111 c12 -11 22 -32 23 -53 3 -29 -1 -36 -25 -48 -42 -20 -78 -4
-96 43 -14 36 -14 39 8 56 29 24 63 24 90 2z m-3994 -46 c14 -11 16 -21 11
-50 -8 -41 -29 -57 -75 -57 -40 0 -63 24 -55 58 12 54 76 80 119 49z m4037
-114 c9 -10 19 -32 23 -50 5 -26 3 -34 -16 -44 -28 -15 -76 -14 -94 1 -7 6
-15 25 -18 43 -6 41 16 67 58 67 18 0 39 -8 47 -17z m-4069 -50 c11 -13 14
-27 8 -53 -11 -56 -67 -73 -113 -33 -20 18 -14 71 10 91 23 18 76 15 95 -5z
m4089 -110 c22 -24 20 -71 -3 -83 -20 -11 -69 -13 -93 -4 -23 9 -22 80 2 93
27 16 77 13 94 -6z m-4084 -97 c4 -44 -7 -56 -54 -56 -41 0 -64 19 -67 54 -3
38 28 55 81 47 35 -6 37 -9 40 -45z m4070 -68 c19 -19 14 -66 -8 -88 -46 -46
-118 -10 -105 52 4 18 13 36 19 40 18 12 81 9 94 -4z m-4058 -43 c7 -9 13 -32
14 -52 1 -32 -3 -39 -26 -47 -45 -16 -81 2 -92 46 -7 27 -6 41 4 52 16 21 84
21 100 1z m4008 -111 c26 -18 27 -34 7 -74 -18 -35 -49 -45 -88 -31 -35 14
-42 34 -27 72 20 46 68 61 108 33z m-3957 -53 c35 -36 37 -65 4 -87 -34 -22
-81 -10 -100 26 -23 44 -19 67 13 78 42 16 51 14 83 -17z m3897 -103 c20 -17
14 -44 -17 -77 -33 -36 -68 -40 -102 -12 l-23 19 19 36 c28 51 82 66 123 34z
m-3801 -67 c28 -41 26 -51 -12 -70 -38 -18 -73 -5 -102 38 -22 32 -22 35 -6
53 12 14 28 18 57 16 33 -2 44 -9 63 -37z m3157 -57 c29 -28 20 -79 -21 -122
-21 -21 -49 -46 -63 -55 l-25 -17 25 -46 c15 -29 36 -52 57 -62 18 -9 33 -19
33 -23 0 -15 -31 -31 -62 -32 -28 -2 -36 4 -65 48 -18 27 -45 86 -59 130 -15
44 -30 82 -34 85 -4 3 -11 19 -14 36 -5 23 -2 36 9 48 19 19 52 21 57 5 3 -9
16 -8 49 4 58 20 94 21 113 1z m549 -21 c16 -9 6 -48 -20 -75 -28 -30 -68 -36
-104 -18 -54 29 24 118 91 103 14 -3 28 -8 33 -10z m-3606 -55 c38 -36 39 -44
16 -70 -26 -29 -72 -23 -110 14 -38 36 -39 44 -16 70 26 29 72 23 110 -14z
m2795 -28 c45 -37 56 -81 34 -133 -8 -20 -26 -42 -40 -48 -36 -17 -91 -3 -117
29 -18 23 -20 35 -15 86 3 34 13 67 23 78 25 28 73 23 115 -12z m-462 -20 c27
-17 -2 -43 -85 -77 -43 -18 -83 -37 -88 -42 -14 -14 40 -44 124 -70 100 -32
128 -75 93 -142 -40 -78 -284 -124 -284 -54 0 7 9 23 19 36 17 21 22 22 40 12
31 -19 101 -16 139 7 17 11 32 24 32 30 0 15 -38 36 -115 65 -77 29 -155 74
-155 90 0 25 60 71 144 111 97 45 112 49 136 34z m1142 -37 c26 -23 23 -37
-17 -72 -38 -33 -58 -37 -99 -21 -36 13 -33 42 9 79 40 35 79 40 107 14z
m-1016 -41 c10 -63 24 -112 32 -112 4 0 15 18 25 39 17 38 55 65 74 53 17 -11
84 -111 95 -143 7 -22 7 -33 -2 -44 -28 -34 -73 -6 -91 56 -5 19 -14 41 -19
49 -9 13 -11 13 -20 0 -5 -8 -17 -37 -26 -65 -17 -52 -36 -75 -65 -75 -12 0
-20 16 -29 63 -7 34 -21 88 -31 120 -20 63 -17 85 15 97 29 11 34 5 42 -38z
m-2318 -16 c36 -34 37 -34 18 -55 -29 -32 -83 -28 -123 10 -51 47 -39 79 29
79 30 0 47 -8 76 -34z m2235 -63 c7 -38 3 -39 -49 -16 -22 9 -42 18 -46 19 -5
1 -10 3 -13 4 -3 1 -11 3 -17 4 -30 3 -9 29 42 54 l55 27 11 -30 c6 -16 14
-45 17 -62z m951 -6 c10 -7 17 -22 15 -32 -6 -27 -66 -65 -103 -65 -65 0 -75
46 -19 85 42 28 80 32 107 12z m-3044 -42 c46 -34 52 -46 33 -67 -22 -25 -76
-23 -118 5 -45 29 -52 48 -25 69 31 25 70 22 110 -7z m2863 -66 c48 -25 43
-48 -16 -83 -46 -26 -90 -27 -116 -2 -21 21 -7 44 45 73 45 26 57 27 87 12z
m-2692 -39 c44 -23 57 -44 43 -68 -19 -30 -49 -31 -108 -5 -45 21 -56 30 -56
50 0 43 59 54 121 23z m2528 -74 c20 -21 8 -42 -38 -66 -44 -22 -82 -25 -112
-10 -34 19 -23 48 29 74 50 26 96 27 121 2z m-2316 -30 c43 -19 49 -46 15 -70
-29 -21 -40 -20 -98 5 -68 29 -78 68 -22 87 27 9 35 7 105 -22z m2098 -46 c22
-12 25 -43 5 -59 -7 -6 -33 -17 -58 -25 -38 -11 -51 -11 -77 0 -50 21 -39 55
24 78 49 18 80 19 106 6z m-1915 -21 c25 -6 51 -21 59 -32 33 -47 -42 -73
-124 -43 -48 17 -60 39 -37 65 22 24 39 26 102 10z m1695 -49 c22 -12 25 -42
6 -59 -25 -20 -110 -34 -139 -22 -30 11 -37 41 -15 59 31 26 116 38 148 22z
m-1412 -35 c18 -11 12 -44 -10 -56 -28 -15 -122 -3 -149 19 -26 21 -18 48 18
60 25 8 115 -6 141 -23z m1191 -25 c11 -11 17 -26 14 -34 -12 -32 -129 -53
-163 -29 -43 29 -16 67 54 76 63 8 76 6 95 -13z m-967 -11 c20 -11 22 -40 5
-57 -7 -7 -31 -12 -54 -12 -101 0 -144 30 -103 71 18 18 28 20 78 14 31 -4 64
-11 74 -16z m741 -33 c19 -31 -25 -56 -98 -56 -64 0 -86 11 -86 41 0 24 16 33
75 39 61 7 95 -1 109 -24z m-506 13 c27 -10 30 -54 4 -68 -24 -13 -129 -6
-148 9 -19 17 -18 47 4 59 20 12 106 12 140 0z m256 -15 c9 -8 16 -19 16 -24
0 -26 -34 -40 -99 -40 -68 0 -91 10 -91 40 0 30 23 40 91 40 48 0 72 -5 83
-16z"/>
<path d="M2610 2727 c-45 -22 -69 -92 -76 -219 -6 -112 -5 -113 21 -140 32
-34 76 -37 104 -7 22 24 27 43 30 129 1 35 9 80 18 99 39 91 35 107 -31 135
-21 9 -39 16 -40 16 0 0 -12 -6 -26 -13z m84 -40 c17 -13 17 -15 -4 -57 -15
-30 -26 -78 -34 -154 l-12 -111 -29 2 c-48 4 -60 25 -57 101 4 80 27 199 43
218 15 18 70 18 93 1z"/>
<path d="M2789 2583 c-9 -2 -23 -18 -32 -36 -19 -41 -38 -143 -30 -165 19 -53
65 -66 120 -33 l31 20 -3 -28 c-5 -35 27 -68 69 -73 37 -4 60 26 79 102 20 75
12 115 -31 157 -31 31 -39 35 -73 30 -26 -3 -42 -1 -47 8 -8 14 -58 25 -83 18z
m46 -25 c28 -12 30 -20 14 -50 -16 -30 -5 -32 37 -3 38 26 75 27 98 5 15 -15
17 -102 4 -160 -11 -47 -17 -55 -38 -58 -46 -4 -53 9 -40 74 6 33 14 67 16 77
10 34 -24 17 -66 -34 -37 -43 -48 -50 -74 -47 -27 3 -31 6 -30 33 3 60 21 144
33 159 16 19 14 19 46 4z"/>
<path d="M2220 2336 c0 -3 13 -12 30 -21 53 -28 99 -75 106 -110 8 -43 -14
-84 -86 -160 -63 -65 -100 -129 -100 -170 0 -17 11 -37 29 -53 16 -15 48 -43
70 -63 22 -20 43 -34 47 -30 4 3 4 0 -1 -8 -6 -11 -41 -13 -191 -8 -101 3
-187 8 -192 10 -4 3 -25 8 -47 11 -62 10 -76 16 -73 34 4 21 66 39 176 51 75
8 90 7 112 -8 34 -23 109 -55 115 -49 3 2 -24 24 -60 47 -77 51 -110 97 -100
141 7 32 37 65 127 142 62 53 92 104 83 141 -4 14 -22 40 -41 58 -36 35 -36
35 -1 -44 23 -50 12 -71 -96 -170 -82 -74 -99 -100 -101 -156 -1 -11 -36 -21
-135 -37 -73 -13 -146 -28 -162 -35 -46 -18 -78 -63 -74 -101 2 -18 6 -62 10
-98 9 -90 31 -173 67 -252 34 -74 32 -93 -9 -109 -64 -24 -105 -94 -88 -148
23 -72 155 -129 389 -166 135 -21 335 -14 566 20 126 19 270 110 270 170 0 34
-23 76 -50 95 -13 8 -29 22 -38 30 -13 12 -12 15 9 23 66 25 92 39 129 73 49
45 58 60 69 120 16 86 -24 156 -108 190 -38 15 -41 19 -41 55 0 60 -33 87
-137 114 -49 13 -124 26 -168 30 -44 4 -83 9 -87 11 -4 3 4 26 18 53 13 27 24
66 24 87 0 33 -7 45 -50 85 -27 26 -50 54 -50 63 0 32 -39 91 -76 116 -33 22
-84 38 -84 26z m214 -237 c14 -17 26 -39 26 -49 0 -26 -28 -90 -56 -127 -50
-66 -63 -158 -25 -171 9 -3 11 2 6 16 -3 12 -2 30 4 40 9 17 15 18 104 7 110
-15 170 -32 164 -48 -5 -18 -91 -37 -192 -43 -87 -5 -91 -4 -137 25 -66 43
-83 71 -69 114 7 19 23 45 37 58 14 13 44 46 66 72 46 55 52 92 18 119 -26 21
-18 43 10 28 10 -5 30 -23 44 -41z m-64 -18 c0 -28 -35 -83 -80 -124 -52 -48
-70 -57 -70 -35 0 18 51 88 95 130 40 38 55 46 55 29z m-125 -211 c0 -18 -33
-26 -47 -12 -6 6 -7 15 -3 22 10 16 50 8 50 -10z m-185 0 c0 -5 0 -13 0 -17 0
-4 -10 -8 -22 -9 -231 -26 -291 -42 -286 -78 10 -67 428 -108 723 -71 187 23
266 53 236 89 -14 17 -116 41 -236 56 -97 12 -100 13 -90 29 15 25 235 -2 345
-41 l65 -23 1 -65 1 -64 36 -1 c44 -2 82 -26 107 -68 65 -106 -47 -259 -196
-269 -22 -1 -44 -9 -51 -18 -10 -12 -12 -9 -13 24 0 30 3 37 15 32 17 -6 21
19 5 29 -7 4 -7 12 0 25 13 24 13 40 0 40 -5 0 -13 -12 -16 -26 -4 -14 -19
-40 -35 -57 l-28 -31 -11 28 c-5 15 -7 38 -4 52 4 15 2 24 -5 24 -6 0 -14 -13
-17 -30 -4 -16 -13 -35 -20 -41 -8 -6 -11 -21 -8 -33 3 -14 -3 -37 -17 -60
-12 -20 -19 -39 -16 -42 3 -3 14 9 23 28 17 30 19 31 22 11 7 -43 23 -23 19
22 -4 48 6 66 21 39 8 -14 10 -14 25 0 35 36 37 9 2 -32 -14 -17 -25 -36 -25
-43 1 -8 12 0 25 16 17 19 28 26 33 19 4 -6 32 -23 63 -37 70 -34 102 -67 102
-108 0 -39 -23 -60 -110 -101 -102 -48 -222 -68 -438 -72 -104 -2 -221 0 -260
6 -221 30 -375 101 -375 172 0 29 54 79 108 103 23 10 41 20 39 23 -54 100
-105 283 -114 410 -6 87 0 97 82 124 107 34 295 57 295 36z"/>
<path d="M2771 1544 c-7 -37 -19 -83 -27 -102 -8 -19 -12 -37 -9 -40 11 -11
96 31 120 59 46 56 24 127 -46 144 -24 6 -26 4 -38 -61z m75 -6 c6 -21 -21
-68 -45 -76 -11 -4 -12 6 -6 44 4 27 9 52 11 56 8 12 33 -3 40 -24z"/>
<path d="M1765 1470 c-4 -6 -2 -17 4 -23 5 -7 8 -23 4 -35 -3 -12 -1 -22 5
-22 6 0 18 -24 27 -52 17 -51 45 -96 45 -71 0 7 -4 15 -10 18 -5 3 -10 13 -10
21 0 8 13 0 31 -21 18 -20 34 -33 37 -30 3 3 -10 22 -30 43 -20 20 -41 48 -48
62 l-13 25 27 -25 c27 -24 28 -24 41 -6 14 19 16 15 39 -87 4 -15 11 -25 16
-22 7 4 6 14 -1 26 -18 35 -3 31 26 -6 15 -20 29 -34 32 -32 2 3 -12 26 -31
52 -39 50 -52 100 -15 56 11 -13 21 -22 23 -20 2 2 8 13 14 24 9 17 12 10 18
-43 3 -34 11 -65 17 -69 6 -4 8 4 3 21 -9 35 5 33 27 -5 10 -18 20 -29 24 -26
3 4 -5 24 -19 44 -30 46 -43 83 -29 83 5 0 15 -8 20 -17 10 -17 12 -17 25 0
23 30 29 19 21 -48 -4 -44 -3 -65 4 -65 6 0 11 14 11 30 0 39 11 38 34 -5 10
-19 23 -32 28 -29 5 3 -1 22 -13 42 -26 45 -41 92 -29 92 5 0 14 -9 20 -20 14
-26 34 -25 53 3 22 33 33 13 18 -36 -22 -74 -24 -87 -13 -87 6 0 16 18 22 40
12 45 21 45 40 0 7 -16 19 -30 26 -30 18 0 18 10 -2 39 -17 24 -36 91 -26 91
3 0 16 -10 29 -22 l23 -21 25 23 25 23 0 -22 c0 -12 -9 -39 -20 -61 -12 -24
-16 -41 -10 -45 6 -4 18 11 27 32 l16 38 14 -33 c7 -18 18 -30 23 -27 6 4 4
17 -5 35 -8 16 -15 44 -14 62 0 33 0 33 16 11 19 -28 31 -29 49 -5 13 16 13
16 14 -1 0 -10 -7 -32 -16 -48 -8 -17 -13 -36 -11 -42 3 -7 11 3 20 22 l15 34
7 -32 c4 -18 11 -29 15 -24 5 4 4 29 -2 55 -12 50 -4 76 13 45 12 -21 25 -22
32 -3 4 10 1 13 -7 10 -18 -7 -34 35 -29 76 4 33 3 34 -11 16 -9 -11 -14 -28
-10 -38 3 -10 0 -18 -6 -18 -6 0 -16 -11 -22 -25 -6 -14 -15 -25 -20 -25 -5 0
-14 11 -20 25 -16 35 -52 33 -80 -5 -12 -16 -25 -30 -29 -30 -4 0 -16 14 -26
30 -10 17 -23 28 -30 26 -15 -6 -18 10 -3 19 18 11 12 47 -7 43 -11 -2 -18
-12 -17 -26 0 -13 -14 -39 -31 -58 l-33 -35 -22 30 c-28 40 -62 41 -79 4 -12
-27 -13 -27 -27 -8 -7 11 -18 25 -24 32 -5 7 -10 26 -10 43 0 16 -4 30 -9 30
-16 0 -23 -19 -13 -37 6 -9 6 -24 2 -32 -5 -9 -11 -25 -15 -36 -6 -20 -6 -20
-21 0 -8 11 -21 28 -28 37 -8 9 -16 29 -18 44 -5 48 -27 40 -25 -10 3 -65 -14
-76 -52 -35 -17 19 -31 44 -31 56 0 25 -15 39 -25 23z"/>
<path d="M2084 1446 c-7 -20 2 -46 16 -46 13 0 13 47 0 55 -6 3 -13 -1 -16 -9z"/>
<path d="M2377 1443 c-4 -3 -7 -15 -7 -25 0 -26 24 -17 28 10 3 21 -8 29 -21
15z"/>
<path d="M1860 1201 c0 -6 10 -19 22 -31 101 -94 527 -104 683 -17 41 23 64
57 29 42 -227 -94 -515 -96 -695 -4 -21 10 -39 15 -39 10z"/>
<path d="M964 967 c-39 -15 -84 -51 -84 -67 0 -6 -4 -9 -9 -6 -4 3 -14 -13
-21 -34 -10 -31 -11 -48 -1 -79 12 -43 94 -141 117 -141 8 0 14 -4 14 -8 0 -7
57 -28 120 -45 20 -6 66 18 79 40 9 17 12 16 33 -9 33 -38 60 -48 117 -46 56
3 64 -3 116 -81 37 -55 75 -70 111 -46 21 14 25 22 20 45 -4 25 -1 30 25 39
25 9 31 8 36 -7 5 -16 22 -35 103 -120 37 -38 79 -43 109 -11 16 17 18 26 10
41 -15 29 -7 41 32 45 33 3 35 1 48 -42 8 -26 26 -55 43 -70 60 -51 161 -56
214 -10 27 23 27 23 47 4 22 -20 77 -39 112 -39 42 0 96 22 111 45 15 23 15
27 -5 61 -18 31 -20 38 -8 48 47 37 17 111 -62 151 -45 23 -136 14 -163 -15
-21 -23 -34 -25 -44 -9 -10 17 -86 49 -117 49 -32 0 -86 -25 -103 -48 -8 -12
-29 -15 -78 -15 -37 1 -69 3 -71 5 -2 1 -1 15 2 30 6 32 36 42 93 29 40 -9 42
-8 61 22 10 18 14 33 9 35 -6 2 -10 10 -10 17 0 8 -12 23 -26 34 -33 26 -92
27 -151 5 l-43 -17 -38 39 c-34 37 -49 43 -112 46 -37 2 -71 -5 -82 -16 -8 -7
-28 -21 -45 -29 -30 -16 -31 -16 -68 18 -40 38 -74 44 -115 20 -14 -8 -32 -17
-40 -21 -8 -4 -23 -16 -32 -27 -17 -19 -21 -28 -32 -80 -6 -25 -8 -26 -22 -12
-22 21 -43 31 -85 39 -55 10 -87 39 -81 73 10 57 37 66 99 33 21 -11 49 -20
64 -20 29 0 59 27 59 53 0 18 -51 77 -65 77 -5 0 -16 7 -25 15 -22 20 -127 28
-166 12z m154 -41 c56 -29 87 -60 79 -81 -9 -23 -38 -18 -92 16 -38 24 -55 29
-81 25 -39 -8 -64 -43 -64 -88 0 -60 54 -108 123 -108 53 0 92 -45 61 -71 -36
-30 -182 42 -240 118 -14 19 -28 51 -31 72 -4 32 0 43 28 76 61 69 135 83 217
41z m262 -133 c74 -68 25 -193 -75 -193 -64 0 -110 72 -81 128 17 32 33 47 79
73 42 23 42 23 77 -8z m272 7 c22 0 58 -38 58 -62 0 -22 -34 -24 -70 -3 -63
36 -130 -8 -130 -86 l0 -39 75 0 c67 0 75 -2 75 -19 0 -21 -26 -31 -86 -31
-22 0 -43 -3 -47 -6 -3 -4 3 -24 14 -46 20 -39 18 -58 -5 -58 -24 0 -63 39
-69 69 -5 23 -15 34 -43 46 -38 16 -42 38 -6 43 16 3 23 13 27 40 12 74 17 86
46 113 31 29 91 50 124 43 11 -2 28 -4 37 -4z m282 -71 c14 -11 26 -30 26 -41
0 -21 -6 -21 -82 -2 -61 15 -108 -26 -108 -93 0 -47 8 -51 78 -40 46 8 65 8
74 -1 20 -20 -9 -40 -68 -48 -60 -7 -67 -19 -34 -61 28 -36 25 -53 -9 -53 -31
0 -45 12 -70 63 -11 22 -25 34 -45 37 -38 7 -44 27 -12 40 23 9 26 15 26 62 0
68 24 108 81 136 56 28 108 28 143 1z m-258 -30 c17 -1 20 -6 16 -23 -11 -40
-24 -45 -85 -31 -31 7 -59 10 -64 6 -4 -3 -1 2 6 12 7 9 10 17 6 17 -4 0 -2 7
6 16 10 12 23 14 53 10 23 -4 51 -7 62 -7z m463 -100 c25 -16 51 -61 51 -89 0
-15 -10 -25 -35 -36 -19 -7 -51 -21 -71 -29 -32 -13 -35 -17 -23 -31 13 -16
60 -16 100 1 23 9 34 -24 15 -43 -21 -21 -113 -20 -153 1 -43 23 -63 64 -63
129 0 58 18 93 54 109 26 11 99 4 125 -12z m256 -7 c35 -22 60 -64 52 -86 -3
-8 -33 -30 -66 -48 -34 -18 -59 -37 -58 -43 6 -17 67 -17 92 -1 20 13 25 13
35 1 22 -26 -5 -52 -59 -60 -101 -14 -161 29 -169 119 -2 30 -2 66 2 80 13 52
112 74 171 38z"/>
<path d="M1305 738 c-41 -23 -44 -42 -10 -64 33 -22 57 -4 53 39 -3 35 -15 41
-43 25z"/>
<path d="M2030 545 c-22 -26 -8 -50 29 -48 67 3 84 63 18 63 -19 0 -40 -7 -47
-15z"/>
<path d="M2296 547 c-11 -8 -17 -23 -14 -38 2 -20 8 -24 32 -22 17 1 39 12 50
23 21 21 21 21 2 36 -25 17 -47 18 -70 1z"/>
<path d="M1606 2535 c-3 -8 -3 -22 0 -30 3 -8 1 -28 -4 -45 -13 -37 -5 -42 41
-29 50 14 53 45 9 92 -29 31 -38 33 -46 12z"/>
<path d="M3480 877 c-30 -15 -39 -67 -16 -86 13 -11 20 -8 41 15 17 18 25 37
23 53 -4 30 -15 35 -48 18z"/>
<path d="M3238 756 c-15 -35 -4 -58 28 -54 39 4 53 32 30 57 -25 28 -44 26
-58 -3z"/>
<path d="M3550 2976 c0 -8 292 -297 297 -293 4 5 -282 297 -292 297 -3 0 -5
-2 -5 -4z"/>
<path d="M4255 2960 c29 -34 69 -69 74 -64 6 6 -49 62 -74 76 -20 11 -20 11 0
-12z"/>
<path d="M3310 2960 c0 -14 80 -93 87 -86 3 3 -15 26 -41 51 -25 25 -46 41
-46 35z"/>
<path d="M1410 2952 c0 -5 7 -15 15 -22 8 -7 15 -8 15 -2 0 5 -7 15 -15 22 -8
7 -15 8 -15 2z"/>
<path d="M4180 2955 c0 -7 80 -87 105 -105 11 -7 -7 14 -40 48 -59 61 -65 67
-65 57z"/>
<path d="M210 2942 c0 -11 66 -72 78 -72 3 0 -5 10 -18 22 -14 13 -33 31 -42
42 -10 10 -18 14 -18 8z"/>
<path d="M1070 2942 c0 -5 15 -19 33 -32 l32 -23 -29 31 c-31 34 -36 37 -36
24z"/>
<path d="M3670 2945 c0 -6 29 -38 65 -73 36 -35 65 -59 65 -55 0 5 -29 38 -65
73 -36 35 -65 60 -65 55z"/>
<path d="M910 2934 c0 -13 48 -59 55 -52 3 2 -9 17 -25 33 -17 16 -30 24 -30
19z"/>
<path d="M3504 2847 c50 -51 102 -101 116 -112 14 -10 -24 31 -85 93 -60 62
-113 112 -116 112 -4 0 34 -42 85 -93z"/>
<path d="M4030 2932 c0 -5 10 -17 21 -28 22 -19 22 -19 10 3 -12 24 -31 39
-31 25z"/>
<path d="M4397 2905 c16 -22 33 -32 33 -20 0 7 -39 45 -45 45 -3 0 2 -11 12
-25z"/>
<path d="M680 2904 c0 -6 16 -25 35 -44 19 -19 35 -29 35 -24 0 6 -16 25 -35
44 -19 19 -35 29 -35 24z"/>
<path d="M776 2888 c10 -12 35 -36 54 -52 19 -17 47 -44 62 -61 16 -16 28 -25
28 -20 0 11 -145 155 -156 155 -4 0 1 -10 12 -22z"/>
<path d="M3285 2890 c10 -11 20 -18 23 -15 7 6 -18 35 -31 35 -5 0 -2 -9 8
-20z"/>
<path d="M3569 2866 c25 -25 47 -44 49 -42 6 6 -50 67 -73 78 -11 6 0 -10 24
-36z"/>
<path d="M4140 2906 c0 -4 36 -43 80 -87 44 -43 80 -75 80 -71 0 11 -21 34
-97 106 -35 33 -63 56 -63 52z"/>
<path d="M0 2893 c0 -13 172 -184 179 -178 2 3 -37 46 -87 97 -51 51 -92 87
-92 81z"/>
<path d="M130 2843 c30 -32 56 -60 58 -62 1 -2 4 -2 7 1 7 6 -98 118 -111 118
-4 0 16 -26 46 -57z"/>
<path d="M4102 2855 c12 -14 26 -25 32 -25 5 0 -1 11 -14 25 -13 14 -27 25
-32 25 -4 0 2 -11 14 -25z"/>
<path d="M200 2865 c0 -11 200 -208 206 -203 2 2 -44 51 -101 108 -58 58 -105
100 -105 95z"/>
<path d="M3320 2863 c0 -13 29 -38 35 -31 3 3 -4 13 -15 23 -11 10 -20 13 -20
8z"/>
<path d="M3841 2863 c6 -18 101 -115 107 -109 3 4 -21 32 -52 64 -32 31 -57
52 -55 45z"/>
<path d="M4415 2800 c39 -38 74 -70 80 -70 5 0 -22 32 -60 70 -38 39 -74 70
-80 70 -5 0 22 -31 60 -70z"/>
<path d="M300 2845 c21 -27 64 -64 69 -59 4 4 -28 36 -65 64 -18 14 -18 14 -4
-5z"/>
<path d="M552 2848 c2 -6 10 -14 16 -16 7 -2 10 2 6 12 -7 18 -28 22 -22 4z"/>
<path d="M480 2844 c0 -13 58 -69 65 -63 2 3 -11 21 -30 39 -19 19 -35 29 -35
24z"/>
<path d="M650 2845 c0 -8 110 -118 114 -114 3 2 -20 30 -50 62 -51 53 -64 64
-64 52z"/>
<path d="M4050 2815 c18 -19 36 -32 39 -30 6 7 -50 65 -63 65 -5 0 5 -16 24
-35z"/>
<path d="M4310 2828 c0 -10 89 -103 94 -98 2 3 -18 27 -45 55 -27 27 -49 47
-49 43z"/>
<path d="M786 2788 c37 -41 56 -57 69 -58 5 0 -11 20 -35 45 -50 51 -79 62
-34 13z"/>
<path d="M3810 2803 c0 -12 38 -48 45 -41 3 2 -6 15 -20 28 -14 13 -25 19 -25
13z"/>
<path d="M3980 2807 c0 -8 192 -199 220 -220 8 -6 -10 15 -40 48 -105 111
-180 183 -180 172z"/>
<path d="M620 2791 c0 -11 29 -35 35 -29 2 2 -4 12 -15 21 -11 9 -20 13 -20 8z"/>
<path d="M44 2758 c15 -23 45 -44 51 -36 1 2 -14 17 -33 33 -35 30 -36 30 -18
3z"/>
<path d="M212 2758 c2 -6 15 -18 29 -27 l24 -15 -24 27 c-26 29 -35 34 -29 15z"/>
<path d="M401 2743 c29 -33 41 -43 54 -43 6 0 -7 16 -27 35 -44 42 -62 47 -27
8z"/>
<path d="M4202 2750 c7 -11 17 -20 23 -20 6 0 16 -9 23 -21 7 -12 16 -19 19
-16 6 7 -57 77 -69 77 -4 0 -3 -9 4 -20z"/>
<path d="M3960 2746 c0 -4 16 -24 35 -44 19 -20 35 -32 35 -27 0 6 -16 25 -35
44 -19 19 -35 31 -35 27z"/>
<path d="M590 2734 c0 -6 14 -23 30 -39 17 -16 30 -24 30 -19 0 6 -13 23 -30
39 -16 16 -30 24 -30 19z"/>
<path d="M3880 2731 c0 -11 29 -35 35 -29 2 2 -4 12 -15 21 -11 9 -20 13 -20
8z"/>
<path d="M25 2688 c17 -20 33 -37 38 -37 16 -2 4 15 -31 44 l-37 30 30 -37z"/>
<path d="M4186 2685 c38 -35 44 -39 44 -31 0 8 -65 66 -74 66 -5 0 9 -16 30
-35z"/>
<path d="M3755 2680 c16 -16 33 -30 38 -30 6 0 -4 14 -21 30 -18 17 -35 30
-39 30 -4 0 6 -13 22 -30z"/>
<path d="M295 2678 c21 -27 56 -54 54 -41 0 5 -17 22 -37 38 -35 29 -36 29
-17 3z"/>
<path d="M3930 2685 c0 -8 179 -185 188 -185 3 0 -36 43 -88 95 -94 94 -100
100 -100 90z"/>
<path d="M220 2673 c0 -13 29 -38 35 -31 3 3 -4 13 -15 23 -11 10 -20 13 -20
8z"/>
<path d="M4325 2630 c27 -27 51 -47 54 -45 5 6 -85 95 -96 95 -4 0 15 -22 42
-50z"/>
<path d="M585 2650 c10 -11 23 -20 28 -20 6 0 0 9 -13 20 -13 11 -25 20 -28
20 -3 0 3 -9 13 -20z"/>
<path d="M675 2640 c10 -11 23 -20 28 -20 6 0 2 9 -8 20 -10 11 -23 20 -28 20
-6 0 -2 -9 8 -20z"/>
<path d="M3880 2652 c0 -5 10 -17 21 -28 22 -19 22 -19 10 3 -12 24 -31 39
-31 25z"/>
<path d="M430 2630 c6 -11 16 -20 22 -20 6 0 3 9 -7 20 -10 11 -20 20 -22 20
-2 0 1 -9 7 -20z"/>
<path d="M545 2600 c21 -22 41 -38 43 -35 5 4 -67 75 -76 75 -4 0 11 -18 33
-40z"/>
<path d="M290 2602 c0 -13 62 -73 69 -67 2 2 -13 21 -33 42 -20 21 -36 32 -36
25z"/>
<path d="M4280 2596 c0 -10 82 -88 86 -83 2 2 -17 23 -41 47 -25 24 -45 40
-45 36z"/>
<path d="M4450 2593 c0 -5 13 -17 28 -27 l27 -19 -24 26 c-26 28 -31 32 -31
20z"/>
<path d="M130 2585 c0 -8 71 -78 75 -73 2 2 -11 20 -30 41 -31 34 -45 45 -45
32z"/>
<path d="M3960 2565 c8 -11 24 -26 34 -34 10 -8 28 -26 40 -40 32 -39 78 -82
83 -77 5 4 -120 133 -152 156 -19 14 -19 14 -5 -5z"/>
<path d="M4126 2566 c3 -9 11 -16 16 -16 13 0 5 23 -10 28 -7 2 -10 -2 -6 -12z"/>
<path d="M260 2544 c0 -13 48 -59 55 -52 3 2 -9 17 -25 33 -17 16 -30 24 -30
19z"/>
<path d="M4440 2515 c18 -19 36 -32 39 -30 6 7 -50 65 -63 65 -5 0 5 -16 24
-35z"/>
<path d="M161 2465 c24 -25 48 -45 54 -45 5 0 -11 20 -35 45 -24 25 -48 45
-54 45 -5 0 11 -20 35 -45z"/>
<path d="M4280 2507 c0 -6 89 -97 96 -97 2 0 -1 8 -7 18 -14 19 -89 87 -89 79z"/>
<path d="M4130 2486 c0 -4 13 -21 30 -39 16 -18 30 -27 30 -21 0 5 -13 23 -30
39 -16 16 -30 25 -30 21z"/>
<path d="M242 2468 c5 -15 28 -23 28 -10 0 5 -7 13 -16 16 -10 4 -14 1 -12 -6z"/>
<path d="M15 2440 c10 -11 20 -20 22 -20 2 0 -1 9 -7 20 -6 11 -16 20 -22 20
-6 0 -3 -9 7 -20z"/>
<path d="M295 2420 c22 -27 56 -60 62 -60 12 0 -3 20 -40 49 -29 25 -36 28
-22 11z"/>
<path d="M4467 2405 c10 -13 22 -25 27 -25 5 0 -1 11 -14 25 -30 32 -36 32
-13 0z"/>
<path d="M4300 2404 c0 -12 50 -58 56 -52 2 3 -10 17 -26 33 -17 16 -30 24
-30 19z"/>
<path d="M4174 2353 c28 -29 51 -51 53 -49 5 4 -30 41 -72 76 -17 13 -8 1 19
-27z"/>
<path d="M90 2373 c0 -13 130 -145 138 -141 4 2 -26 36 -65 77 -40 41 -73 70
-73 64z"/>
<path d="M4254 2360 c20 -32 85 -95 91 -88 2 2 -21 29 -51 59 -31 30 -49 43
-40 29z"/>
<path d="M4410 2373 c0 -5 20 -26 45 -46 25 -21 45 -34 44 -30 -1 12 -89 87
-89 76z"/>
<path d="M4250 2283 c0 -13 221 -236 227 -230 3 4 -47 58 -111 122 -64 63
-116 112 -116 108z"/>
<path d="M4360 2254 c0 -12 109 -119 115 -112 2 2 -22 31 -55 63 -33 33 -60
55 -60 49z"/>
<path d="M4460 2235 c13 -14 28 -25 33 -25 6 0 0 11 -13 25 -13 14 -28 25 -33
25 -6 0 0 -11 13 -25z"/>
<path d="M162 2200 c7 -11 19 -20 27 -20 11 0 10 5 -4 20 -10 11 -22 20 -27
20 -4 0 -3 -9 4 -20z"/>
<path d="M82 2111 c13 -22 28 -28 28 -11 0 5 -9 14 -20 20 -19 10 -20 10 -8
-9z"/>
<path d="M65 2040 c16 -16 30 -28 33 -26 5 6 -44 56 -54 56 -4 0 5 -13 21 -30z"/>
<path d="M0 2025 c0 -7 62 -65 68 -65 3 0 -9 16 -28 35 -34 35 -40 40 -40 30z"/>
<path d="M22 960 c12 -16 26 -30 32 -30 5 0 -3 14 -19 30 -16 17 -30 30 -32
30 -2 0 6 -13 19 -30z"/>
<path d="M4437 870 c68 -65 82 -65 18 0 -27 28 -54 50 -60 50 -5 0 14 -23 42
-50z"/>
<path d="M90 893 c0 -12 38 -48 45 -41 3 2 -6 15 -20 28 -14 13 -25 19 -25 13z"/>
<path d="M4376 848 c24 -28 48 -48 53 -43 5 5 -55 65 -65 65 -4 0 1 -10 12
-22z"/>
<path d="M150 831 c0 -5 7 -14 15 -21 16 -14 18 -10 9 14 -6 17 -24 22 -24 7z"/>
<path d="M4311 825 c29 -32 173 -175 176 -175 2 0 -1 8 -6 18 -12 21 -156 162
-167 162 -4 0 -5 -2 -3 -5z"/>
<path d="M190 796 c0 -11 70 -80 75 -74 3 2 -13 22 -35 43 -22 22 -40 35 -40
31z"/>
<path d="M35 770 c10 -11 20 -18 23 -15 7 6 -18 35 -31 35 -5 0 -2 -9 8 -20z"/>
<path d="M4440 784 c0 -6 17 -23 45 -44 11 -8 7 0 -9 18 -30 32 -36 37 -36 26z"/>
<path d="M70 745 c1 -17 29 -49 37 -41 4 3 -3 16 -15 29 -12 12 -22 17 -22 12z"/>
<path d="M280 705 c0 -10 71 -77 76 -72 2 2 -14 21 -36 42 -22 22 -40 35 -40
30z"/>
<path d="M4350 708 c0 -11 120 -132 125 -126 2 2 -25 33 -60 68 -36 36 -65 61
-65 58z"/>
<path d="M120 694 c0 -12 112 -126 118 -120 2 3 -24 33 -57 68 -34 34 -61 58
-61 52z"/>
<path d="M40 684 c0 -5 9 -17 20 -27 26 -22 26 -6 0 18 -11 10 -20 14 -20 9z"/>
<path d="M4200 683 c0 -5 14 -22 31 -39 23 -21 29 -23 21 -9 -13 25 -52 62
-52 48z"/>
<path d="M240 650 c6 -11 20 -25 33 -31 18 -10 17 -6 -7 20 -34 36 -41 39 -26
11z"/>
<path d="M15 620 c33 -38 59 -64 80 -80 11 -8 4 3 -15 25 -19 23 -46 49 -60
60 l-25 19 20 -24z"/>
<path d="M4169 623 c12 -24 31 -39 31 -25 0 5 -10 17 -21 28 -22 19 -22 19
-10 -3z"/>
<path d="M412 566 c29 -29 55 -52 57 -50 6 6 -91 104 -101 104 -5 0 15 -24 44
-54z"/>
<path d="M309 583 c12 -24 31 -39 31 -25 0 5 -10 17 -21 28 -22 19 -22 19 -10
-3z"/>
<path d="M4110 594 c0 -7 80 -84 86 -84 11 0 0 14 -37 50 -42 40 -49 45 -49
34z"/>
<path d="M4351 524 c126 -129 142 -144 147 -139 7 6 -200 215 -212 215 -5 0
24 -34 65 -76z"/>
<path d="M140 583 c0 -13 29 -38 35 -31 3 3 -4 13 -15 23 -11 10 -20 13 -20 8z"/>
<path d="M4380 586 c0 -8 96 -106 105 -106 3 0 0 8 -7 18 -17 23 -98 96 -98
88z"/>
<path d="M250 563 c0 -13 180 -195 189 -191 4 2 -37 47 -91 102 -54 54 -98 94
-98 89z"/>
<path d="M190 537 c0 -12 178 -192 184 -187 2 3 -38 48 -90 100 -52 52 -94 91
-94 87z"/>
<path d="M4100 523 c0 -5 14 -22 31 -39 23 -21 29 -23 21 -9 -13 25 -52 62
-52 48z"/>
<path d="M120 516 c0 -4 92 -96 96 -96 9 0 2 9 -42 53 -43 44 -54 53 -54 43z"/>
<path d="M4301 493 c34 -38 71 -73 77 -73 9 0 -83 98 -92 99 -5 1 1 -11 15
-26z"/>
<path d="M4030 506 c0 -11 39 -50 45 -44 3 2 -6 15 -20 28 -14 13 -25 20 -25
16z"/>
<path d="M510 473 c0 -5 13 -17 28 -27 l27 -19 -24 26 c-26 28 -31 32 -31 20z"/>
<path d="M460 430 c0 -5 10 -15 23 -21 22 -12 22 -12 3 10 -21 23 -26 26 -26
11z"/>
<path d="M4100 437 c0 -3 11 -18 25 -33 14 -15 25 -23 25 -17 0 5 -11 20 -25
33 -14 13 -25 21 -25 17z"/>
<path d="M4316 385 c26 -30 52 -55 57 -55 10 0 -3 17 -60 76 -51 53 -49 40 3
-21z"/>
<path d="M145 401 c17 -16 38 -39 48 -51 10 -12 21 -19 25 -16 7 8 -78 96 -93
96 -5 0 4 -13 20 -29z"/>
<path d="M3870 406 c0 -11 30 -39 36 -34 2 3 -5 13 -16 23 -11 10 -20 15 -20
11z"/>
<path d="M240 396 c0 -11 209 -220 215 -215 2 3 -33 43 -79 90 -103 104 -136
135 -136 125z"/>
<path d="M4050 393 c0 -12 50 -56 57 -49 5 5 -7 19 -40 45 -9 7 -17 9 -17 4z"/>
<path d="M4400 394 c0 -11 61 -67 66 -61 2 2 -12 19 -31 37 -19 19 -35 30 -35
24z"/>
<path d="M623 353 c21 -20 39 -34 42 -31 7 6 -55 68 -69 68 -5 0 7 -16 27 -37z"/>
<path d="M3988 374 c13 -25 42 -50 42 -37 0 5 -12 20 -26 34 -24 21 -26 22
-16 3z"/>
<path d="M4240 386 c0 -11 173 -187 178 -181 3 2 -36 46 -87 97 -50 51 -91 89
-91 84z"/>
<path d="M20 355 c22 -24 30 -29 30 -22 0 8 -38 47 -45 47 -5 0 2 -11 15 -25z"/>
<path d="M526 371 c-5 -8 15 -30 43 -46 9 -5 5 6 -8 23 -24 35 -27 36 -35 23z"/>
<path d="M696 365 c4 -9 16 -21 28 -27 19 -10 19 -9 -3 16 -28 30 -33 32 -25
11z"/>
<path d="M4160 372 c0 -5 7 -15 15 -22 8 -7 15 -8 15 -2 0 5 -7 15 -15 22 -8
7 -15 8 -15 2z"/>
<path d="M110 353 c0 -13 29 -38 35 -31 3 3 -4 13 -15 23 -11 10 -20 13 -20 8z"/>
<path d="M471 333 c13 -16 25 -30 27 -32 1 -2 5 -2 8 1 7 8 -36 58 -50 58 -5
0 1 -12 15 -27z"/>
<path d="M3930 342 c0 -4 9 -15 20 -25 24 -20 27 -6 4 17 -17 18 -24 20 -24 8z"/>
<path d="M390 333 c0 -13 29 -38 35 -31 3 3 -4 13 -15 23 -11 10 -20 13 -20 8z"/>
<path d="M3771 323 c14 -19 132 -133 137 -133 9 0 -7 20 -67 80 -64 65 -102
93 -70 53z"/>
<path d="M3871 313 c8 -10 25 -27 39 -38 13 -11 31 -28 39 -37 9 -10 19 -18
23 -18 4 0 -17 25 -47 55 -51 53 -83 74 -54 38z"/>
<path d="M121 250 c34 -38 67 -70 72 -70 11 0 -9 24 -80 97 -66 67 -61 51 8
-27z"/>
<path d="M240 314 c0 -6 34 -44 75 -85 41 -41 89 -88 107 -106 18 -18 35 -30
37 -27 3 3 -45 55 -107 116 -62 61 -112 107 -112 102z"/>
<path d="M4205 238 c85 -89 125 -128 133 -128 2 0 -9 15 -25 33 -47 52 -174
177 -181 177 -3 0 30 -37 73 -82z"/>
<path d="M4421 284 c70 -74 79 -83 79 -74 0 10 -97 110 -107 110 -4 0 9 -16
28 -36z"/>
<path d="M706 270 c21 -22 43 -40 49 -40 5 0 -9 18 -30 40 -21 22 -43 40 -49
40 -5 0 8 -18 30 -40z"/>
<path d="M520 288 c0 -18 18 -34 28 -24 3 4 -2 14 -11 23 -16 16 -17 16 -17 1z"/>
<path d="M600 292 c0 -9 61 -64 66 -59 3 3 -55 67 -62 67 -2 0 -4 -3 -4 -8z"/>
<path d="M180 287 c0 -12 69 -81 75 -75 2 2 -13 22 -35 43 -22 22 -40 36 -40
32z"/>
<path d="M3730 284 c0 -6 12 -21 28 -34 15 -12 35 -30 45 -38 34 -30 16 -5
-28 38 -25 24 -45 40 -45 34z"/>
<path d="M3990 281 c0 -5 12 -17 28 -26 l27 -18 -24 27 c-26 28 -31 31 -31 17z"/>
<path d="M4268 265 c13 -26 80 -90 87 -84 2 3 -18 27 -46 55 -28 27 -47 40
-41 29z"/>
<path d="M35 250 c10 -11 20 -20 22 -20 2 0 -1 9 -7 20 -6 11 -16 20 -22 20
-6 0 -3 -9 7 -20z"/>
<path d="M460 266 c0 -10 161 -169 166 -164 2 2 -35 42 -81 88 -47 47 -85 81
-85 76z"/>
<path d="M810 253 c1 -11 50 -46 50 -35 0 10 -33 42 -43 42 -4 0 -7 -3 -7 -7z"/>
<path d="M930 225 c41 -50 81 -87 86 -82 5 5 -18 29 -76 82 l-44 40 34 -40z"/>
<path d="M3598 245 c11 -23 62 -73 62 -61 0 4 -16 24 -36 44 -20 20 -31 28
-26 17z"/>
<path d="M599 206 c14 -14 27 -26 29 -26 10 0 -26 44 -39 48 -8 3 -3 -7 10
-22z"/>
<path d="M95 191 c30 -37 89 -90 98 -91 10 0 -66 77 -98 100 -20 15 -20 15 0
-9z"/>
<path d="M780 204 c0 -10 152 -161 193 -192 34 -26 15 -5 -88 98 -58 58 -105
100 -105 94z"/>
<path d="M907 158 c26 -24 55 -52 65 -63 9 -11 17 -16 18 -11 0 10 -111 115
-122 116 -4 0 14 -19 39 -42z"/>
<path d="M3560 194 c0 -5 12 -20 28 -34 63 -58 85 -67 34 -14 -39 40 -62 58
-62 48z"/>
<path d="M3730 193 c0 -5 36 -42 80 -82 44 -40 80 -70 80 -67 0 4 -98 103
-141 142 -11 9 -19 13 -19 7z"/>
<path d="M4430 194 c0 -13 58 -69 65 -63 2 3 -11 21 -30 39 -19 19 -35 29 -35
24z"/>
<path d="M290 170 c6 -11 20 -25 33 -31 18 -10 17 -6 -7 20 -34 36 -41 39 -26
11z"/>
<path d="M1070 173 c0 -5 9 -18 20 -28 11 -10 20 -14 20 -8 0 5 -9 18 -20 28
-11 10 -20 14 -20 8z"/>
<path d="M3670 174 c0 -13 88 -99 95 -93 2 3 -18 27 -45 54 -28 27 -50 45 -50
39z"/>
<path d="M3840 174 c0 -6 12 -18 50 -49 21 -17 20 -14 -5 17 -28 34 -45 46
-45 32z"/>
<path d="M230 146 c53 -60 91 -98 95 -95 4 5 -62 78 -95 104 l-25 20 25 -29z"/>
<path d="M670 142 c0 -4 20 -28 45 -52 25 -24 45 -41 45 -38 0 3 -20 27 -45
52 -25 26 -45 43 -45 38z"/>
<path d="M3544 120 c31 -38 120 -117 96 -85 -35 45 -57 68 -90 93 l-35 26 29
-34z"/>
<path d="M4147 125 c26 -37 71 -80 78 -74 2 3 -19 27 -47 55 -35 34 -45 40
-31 19z"/>
<path d="M4400 130 c6 -11 16 -20 22 -20 6 0 3 9 -7 20 -10 11 -20 20 -22 20
-2 0 1 -9 7 -20z"/>
<path d="M127 71 c38 -38 70 -67 72 -65 6 6 -121 134 -131 134 -5 0 22 -31 59
-69z"/>
<path d="M500 134 c0 -4 19 -25 43 -48 84 -80 101 -90 42 -26 -60 65 -85 87
-85 74z"/>
<path d="M3360 132 c0 -10 26 -34 50 -47 8 -4 2 6 -14 23 -32 34 -36 37 -36
24z"/>
<path d="M770 126 c0 -10 61 -68 67 -63 3 4 -9 20 -27 37 -31 29 -40 35 -40
26z"/>
<path d="M1050 103 c25 -31 40 -41 40 -25 0 5 -15 19 -32 32 l-33 24 25 -31z"/>
<path d="M1120 123 c0 -12 38 -48 45 -41 3 2 -6 15 -20 28 -14 13 -25 19 -25
13z"/>
<path d="M4240 123 c0 -13 29 -38 35 -31 3 3 -4 13 -15 23 -11 10 -20 13 -20
8z"/>
<path d="M361 96 c7 -14 15 -26 19 -26 4 0 23 -16 43 -35 21 -20 37 -32 37
-27 0 4 -25 32 -55 62 -43 40 -53 47 -44 26z"/>
<path d="M3486 90 c16 -16 33 -30 38 -30 6 0 -3 14 -19 30 -16 17 -33 30 -39
30 -5 0 4 -13 20 -30z"/>
<path d="M22 90 c13 -20 28 -27 28 -12 0 10 -22 32 -32 32 -5 0 -3 -9 4 -20z"/>
<path d="M1248 85 c13 -26 72 -82 72 -69 0 6 -19 28 -41 49 -23 22 -37 31 -31
20z"/>
<path d="M3320 92 c0 -4 17 -24 37 -43 l37 -34 -33 43 c-33 42 -41 49 -41 34z"/>
<path d="M3660 99 c0 -9 72 -81 76 -76 2 2 -14 21 -36 42 -22 22 -40 37 -40
34z"/>
<path d="M4350 97 c0 -9 71 -79 76 -74 3 3 -10 21 -29 41 -31 32 -47 43 -47
33z"/>
<path d="M231 55 c18 -19 34 -33 36 -31 6 5 -51 66 -61 66 -3 0 8 -16 25 -35z"/>
<path d="M3150 86 c0 -11 79 -90 84 -85 7 6 -3 18 -47 58 -20 19 -37 31 -37
27z"/>
<path d="M4020 83 c0 -15 41 -55 49 -48 3 3 -7 18 -22 33 -15 14 -27 21 -27
15z"/>
<path d="M500 45 c13 -14 28 -25 33 -25 6 0 0 11 -13 25 -13 14 -28 25 -33 25
-6 0 0 -11 13 -25z"/>
<path d="M3270 45 c13 -14 28 -25 34 -25 6 0 -1 11 -16 25 -15 14 -30 25 -34
25 -4 0 3 -11 16 -25z"/>
<path d="M77 35 c10 -13 25 -27 33 -30 8 -4 2 8 -14 24 -36 37 -43 40 -19 6z"/>
<path d="M785 20 c10 -11 23 -20 28 -20 6 0 2 9 -8 20 -10 11 -23 20 -28 20
-6 0 -2 -9 8 -20z"/>
<path d="M1470 25 c7 -8 17 -15 22 -15 6 0 5 7 -2 15 -7 8 -17 15 -22 15 -6 0
-5 -7 2 -15z"/>
<path d="M3810 33 c0 -13 29 -38 35 -31 3 3 -4 13 -15 23 -11 10 -20 13 -20 8z"/>
<path d="M4245 20 c10 -11 23 -20 28 -20 6 0 2 9 -8 20 -10 11 -23 20 -28 20
-6 0 -2 -9 8 -20z"/>
<path d="M3560 15 c7 -8 17 -15 22 -15 6 0 5 7 -2 15 -7 8 -17 15 -22 15 -6 0
-5 -7 2 -15z"/>
</g>
</svg>
